#N canvas 0 0 1360 696 10;
#X obj 79 128 r pdx;
#X obj 222 129 r pdy;
#X obj 56 382 +~;
#X obj -11 300 *~;
#X obj 79 258 line~;
#X obj 222 205 t f b;
#X obj 222 290 line~;
#X obj -10 166 osc~ 50;
#X obj 55 404 osc~;
#X obj 124 188 f 100;
#X obj 267 237 f 100;
#X obj 151 128 r pdindex;
#X obj 294 130 r pdratio;
#X obj 468 133 r pdx;
#X obj 611 134 r pdy;
#X obj 445 387 +~;
#X obj 378 305 *~;
#X obj 468 169 t f b;
#X obj 468 254 line~;
#X obj 611 210 t f b;
#X obj 611 295 line~;
#X obj 513 193 f 100;
#X obj 656 237 f 100;
#X obj 540 133 r pdindex;
#X obj 683 135 r pdratio;
#X obj 848 136 r pdx;
#X obj 991 137 r pdy;
#X obj 825 390 +~;
#X obj 758 308 *~;
#X obj 848 172 t f b;
#X obj 848 257 line~;
#X obj 991 213 t f b;
#X obj 991 298 line~;
#X obj 759 174 osc~ 50;
#X obj 893 196 f 100;
#X obj 1036 240 f 100;
#X obj 920 136 r pdindex;
#X obj 1063 138 r pdratio;
#X obj 1223 139 r pdx;
#X obj 1366 140 r pdy;
#X obj 1200 393 +~;
#X obj 1133 311 *~;
#X obj 1223 175 t f b;
#X obj 1223 260 line~;
#X obj 1366 216 t f b;
#X obj 1366 301 line~;
#X obj 1199 415 osc~;
#X obj 1268 199 f 100;
#X obj 1411 243 f 100;
#X obj 1295 139 r pdindex;
#X obj 1438 141 r pdratio;
#X obj 379 171 phasor~ 50;
#X obj 444 409 phasor~;
#X obj 824 412 phasor~;
#X obj 1134 177 phasor~ 50;
#X obj 55 565 *~;
#X obj 129 450 t f b;
#X obj 129 542 line~;
#X obj 129 429 r pdoovol;
#X obj 444 435 *~ 0.0065;
#X obj 444 571 *~;
#X obj 518 456 t f b;
#X obj 518 548 line~;
#X obj 825 437 *~ 0.0065;
#X obj 825 573 *~;
#X obj 899 464 t f b;
#X obj 899 550 line~;
#X obj 696 659 dac~;
#X obj 1200 440 *~ 0.0065;
#X obj 1200 576 *~;
#X obj 1274 461 t f b;
#X obj 1274 553 line~;
#X obj 518 435 r pdppvol;
#X obj 899 437 r pdopvol;
#X obj 1274 440 r pdpovol;
#X obj -10 127 r pdoofreq;
#X obj 379 132 r pdppfreq;
#X obj 759 135 r pdopfreq;
#X obj 1134 138 r pdpofreq;
#X obj 79 164 t f b;
#X obj 55 429 *~ 0.0065;
#X obj 79 230 pack;
#X obj 222 265 pack;
#X obj 129 511 pack;
#X obj 468 222 pack;
#X obj 611 268 pack;
#X obj 518 516 pack;
#X obj 848 230 pack;
#X obj 991 270 pack;
#X obj 899 521 pack;
#X obj 1223 231 pack;
#X obj 1366 268 pack;
#X obj 1274 520 pack;
#X obj 157 484 f 5;
#X obj 549 490 f 5;
#X obj 931 492 f 5;
#X obj 1307 493 f 5;
#X connect 0 0 79 0;
#X connect 1 0 5 0;
#X connect 2 0 8 0;
#X connect 3 0 2 0;
#X connect 4 0 3 1;
#X connect 5 0 82 0;
#X connect 5 1 10 0;
#X connect 6 0 2 1;
#X connect 7 0 3 0;
#X connect 8 0 80 0;
#X connect 9 0 81 1;
#X connect 10 0 82 1;
#X connect 11 0 9 1;
#X connect 12 0 10 1;
#X connect 13 0 17 0;
#X connect 14 0 19 0;
#X connect 15 0 52 0;
#X connect 16 0 15 0;
#X connect 17 0 84 0;
#X connect 17 1 21 0;
#X connect 18 0 16 1;
#X connect 19 0 85 0;
#X connect 19 1 22 0;
#X connect 20 0 15 1;
#X connect 21 0 84 1;
#X connect 22 0 85 1;
#X connect 23 0 21 1;
#X connect 24 0 22 1;
#X connect 25 0 29 0;
#X connect 26 0 31 0;
#X connect 27 0 53 0;
#X connect 28 0 27 0;
#X connect 29 0 87 0;
#X connect 29 1 34 0;
#X connect 30 0 28 1;
#X connect 31 0 88 0;
#X connect 31 1 35 0;
#X connect 32 0 27 1;
#X connect 33 0 28 0;
#X connect 34 0 87 1;
#X connect 35 0 88 1;
#X connect 36 0 34 1;
#X connect 37 0 35 1;
#X connect 38 0 42 0;
#X connect 39 0 44 0;
#X connect 40 0 46 0;
#X connect 41 0 40 0;
#X connect 42 0 90 0;
#X connect 42 1 47 0;
#X connect 43 0 41 1;
#X connect 44 0 91 0;
#X connect 44 1 48 0;
#X connect 45 0 40 1;
#X connect 46 0 68 0;
#X connect 47 0 90 1;
#X connect 48 0 91 1;
#X connect 49 0 47 1;
#X connect 50 0 48 1;
#X connect 51 0 16 0;
#X connect 52 0 59 0;
#X connect 53 0 63 0;
#X connect 54 0 41 0;
#X connect 55 0 67 0;
#X connect 55 0 67 1;
#X connect 56 0 83 0;
#X connect 56 1 93 0;
#X connect 57 0 55 1;
#X connect 58 0 56 0;
#X connect 59 0 60 0;
#X connect 60 0 67 1;
#X connect 60 0 67 0;
#X connect 61 0 86 0;
#X connect 61 1 94 0;
#X connect 62 0 60 1;
#X connect 63 0 64 0;
#X connect 64 0 67 0;
#X connect 64 0 67 1;
#X connect 65 0 89 0;
#X connect 65 1 95 0;
#X connect 66 0 64 1;
#X connect 68 0 69 0;
#X connect 69 0 67 1;
#X connect 69 0 67 0;
#X connect 70 0 92 0;
#X connect 70 1 96 0;
#X connect 71 0 69 1;
#X connect 72 0 61 0;
#X connect 73 0 65 0;
#X connect 74 0 70 0;
#X connect 75 0 7 0;
#X connect 76 0 51 0;
#X connect 77 0 33 0;
#X connect 78 0 54 0;
#X connect 79 0 81 0;
#X connect 79 1 9 0;
#X connect 80 0 55 0;
#X connect 81 0 4 0;
#X connect 82 0 6 0;
#X connect 83 0 57 0;
#X connect 84 0 18 0;
#X connect 85 0 20 0;
#X connect 86 0 62 0;
#X connect 87 0 30 0;
#X connect 88 0 32 0;
#X connect 89 0 66 0;
#X connect 90 0 43 0;
#X connect 91 0 45 0;
#X connect 92 0 71 0;
#X connect 93 0 83 1;
#X connect 94 0 86 1;
#X connect 95 0 89 1;
#X connect 96 0 92 1;
