#N canvas 17 8 1343 679 12;
#X obj 212 -342 loadbang;
#X obj -24 -81 mtof;
#X obj -22 194 *~;
#X obj 664 308 line~;
#X obj 124 -80 mtof;
#X obj 124 195 *~;
#X obj 270 -80 mtof;
#X obj 270 195 *~;
#X obj 651 828 dac~;
#X msg 151 -271 bang;
#X obj 270 -53 phasor~;
#X obj 271 -24 -~ 0.5;
#X obj 124 -51 phasor~;
#X obj 125 -22 -~ 0.5;
#X obj -24 -51 phasor~;
#X obj -23 -22 -~ 0.5;
#X obj 414 -81 mtof;
#X obj 414 194 *~;
#X obj 414 -54 phasor~;
#X obj 415 -25 -~ 0.5;
#X obj -23 36 lop~ 10;
#X obj 125 36 lop~ 10;
#X obj 270 40 lop~ 10;
#X obj 414 39 lop~ 10;
#X msg 290 -271 bang;
#X obj -23 6 *~ 2;
#X obj 125 6 *~ 2;
#X obj 271 4 *~ 2;
#X obj 415 3 *~ 2;
#X obj -22 369 *~;
#X obj 124 370 *~;
#X obj 270 370 *~;
#X obj 414 369 *~;
#X obj 289 111 receive pjstween3;
#X obj 432 85 receive pjstween4;
#X obj 142 86 receive pjstween2;
#X obj -4 64 receive pjstween1;
#X obj -4 218 receive pjsvol1;
#X obj 142 240 receive pjsvol2;
#X obj 288 263 receive pjsvol3;
#X obj 432 239 receive pjsvol4;
#X obj 740 228 receive pjsquit;
#X obj -4 162 line~;
#X obj 142 164 line~;
#X obj 289 167 line~;
#X obj 432 170 line~;
#X msg 142 136 \$1 50;
#X msg 289 139 \$1 50;
#X msg 432 142 \$1 50;
#X msg -4 134 \$1 50;
#X msg 675 254 0.5 500;
#X text -24 -139 Pads;
#X msg 290 -246 50;
#X obj 476 -53 osc~ 0.5;
#X obj 328 -53 osc~ 0.5;
#X obj 187 -50 osc~ 0.5;
#X obj 39 -50 osc~ 0.5;
#X obj 476 -76 mtof;
#X obj 328 -78 mtof;
#X obj 187 -75 mtof;
#X obj 39 -75 mtof;
#X obj -23 398 *~ 0.15;
#X obj 125 398 *~ 0.15;
#X obj 271 398 *~ 0.15;
#X obj 415 397 *~ 0.15;
#X obj 39 -100 - 12;
#X obj 187 -100 - 12;
#X obj 328 -103 - 12;
#X obj 476 -101 - 12;
#X msg 611 236 bang;
#X msg -24 -105 61;
#X msg 124 -104 65;
#X msg 270 -104 68;
#X msg 414 -105 71;
#X msg 740 254 0 50;
#X obj 442 321 line~;
#X msg 442 293 \$1 5;
#X obj 298 326 line~;
#X msg 298 298 \$1 5;
#X obj 152 326 line~;
#X msg 152 298 \$1 5;
#X obj 6 323 line~;
#X msg 6 295 \$1 5;
#X obj 666 594 *~;
#X obj 1374 296 hip~;
#X obj 1374 236 lop~;
#X obj 1518 456 *~ 1;
#X obj 1374 315 hip~;
#X obj 1374 256 lop~;
#X obj 1374 355 lop~;
#X obj 1395 216 t f;
#X obj 1374 276 *~ 3;
#X obj 1374 335 *~ 0.5;
#X obj 1373 -27 *~;
#X obj 1373 -104 noise~;
#X msg 1428 -145 bang;
#X obj 1428 -106 t b b;
#X msg 1492 -86 1 5;
#X obj 1428 -86 delay 10;
#X obj 1428 -41 line~;
#X obj 1423 296 hip~;
#X obj 1423 236 lop~;
#X obj 1423 315 hip~;
#X obj 1423 256 lop~;
#X obj 1423 355 lop~;
#X obj 1444 216 t f;
#X obj 1423 276 *~ 3;
#X obj 1423 335 *~ 0.5;
#X obj 1470 296 hip~;
#X obj 1470 236 lop~;
#X obj 1470 315 hip~;
#X obj 1470 256 lop~;
#X obj 1470 355 lop~;
#X obj 1491 216 t f;
#X obj 1470 276 *~ 3;
#X obj 1470 335 *~ 0.5;
#X obj 1517 297 hip~;
#X obj 1517 237 lop~;
#X obj 1517 316 hip~;
#X obj 1517 257 lop~;
#X obj 1517 356 lop~;
#X obj 1538 217 t f;
#X obj 1517 277 *~ 3;
#X obj 1517 336 *~ 0.5;
#X msg 1645 -88 221;
#X msg 1675 -88 333;
#X msg 1707 -88 426;
#X msg 1737 -88 527;
#X msg 1645 -113 bang wood;
#X msg 1820 -95 bang china;
#X msg 1820 -70 1245;
#X msg 1850 -70 1503;
#X msg 1882 -70 2131;
#X msg 1912 -70 2575;
#X msg 1428 -65 0 25;
#X obj 1374 -80 *~;
#X obj 1630 -189 r pjsstronghit;
#X obj 1831 -157 r pjslighthit;
#X obj 795 66 hip~;
#X obj 795 6 lop~;
#X obj 939 226 *~ 1;
#X obj 795 85 hip~;
#X obj 795 26 lop~;
#X obj 795 125 lop~;
#X obj 816 -14 t f;
#X obj 795 46 *~ 3;
#X obj 795 105 *~ 0.5;
#X obj 786 -105 *~;
#X msg 841 -204 bang;
#X obj 841 -184 t b b;
#X msg 897 -164 1 5;
#X obj 841 -164 delay 10;
#X obj 841 -119 line~;
#X obj 844 66 hip~;
#X obj 844 6 lop~;
#X obj 844 85 hip~;
#X obj 844 26 lop~;
#X obj 844 125 lop~;
#X obj 865 -14 t f;
#X obj 844 46 *~ 3;
#X obj 844 105 *~ 0.5;
#X obj 891 66 hip~;
#X obj 891 6 lop~;
#X obj 891 85 hip~;
#X obj 891 26 lop~;
#X obj 891 125 lop~;
#X obj 912 -14 t f;
#X obj 891 46 *~ 3;
#X obj 891 105 *~ 0.5;
#X obj 938 67 hip~;
#X obj 938 7 lop~;
#X obj 938 86 hip~;
#X obj 938 27 lop~;
#X obj 938 126 lop~;
#X obj 959 -13 t f;
#X obj 938 47 *~ 3;
#X obj 938 106 *~ 0.5;
#X msg 968 -198 221;
#X msg 998 -198 333;
#X msg 1030 -198 426;
#X msg 1060 -198 527;
#X msg 920 -251 bang wood;
#X obj 787 -158 *~;
#X msg 841 -143 0 15;
#X obj 920 -290 r pjshit;
#X obj 786 -182 noise~;
#X obj 787 -132 *~;
#X connect 0 0 9 0;
#X connect 0 0 24 0;
#X connect 0 0 69 0;
#X connect 1 0 14 0;
#X connect 2 0 29 0;
#X connect 3 0 83 1;
#X connect 4 0 12 0;
#X connect 5 0 30 0;
#X connect 6 0 10 0;
#X connect 7 0 31 0;
#X connect 9 0 72 0;
#X connect 9 0 71 0;
#X connect 9 0 70 0;
#X connect 9 0 73 0;
#X connect 10 0 11 0;
#X connect 11 0 27 0;
#X connect 12 0 13 0;
#X connect 13 0 26 0;
#X connect 14 0 15 0;
#X connect 15 0 25 0;
#X connect 16 0 18 0;
#X connect 17 0 32 0;
#X connect 18 0 19 0;
#X connect 19 0 28 0;
#X connect 20 0 2 0;
#X connect 21 0 5 0;
#X connect 22 0 7 0;
#X connect 23 0 17 0;
#X connect 24 0 52 0;
#X connect 24 0 50 0;
#X connect 25 0 20 0;
#X connect 26 0 21 0;
#X connect 27 0 22 0;
#X connect 28 0 23 0;
#X connect 29 0 61 0;
#X connect 30 0 62 0;
#X connect 31 0 63 0;
#X connect 32 0 64 0;
#X connect 33 0 47 0;
#X connect 34 0 48 0;
#X connect 35 0 46 0;
#X connect 36 0 49 0;
#X connect 37 0 82 0;
#X connect 38 0 80 0;
#X connect 39 0 78 0;
#X connect 40 0 76 0;
#X connect 41 0 74 0;
#X connect 42 0 2 1;
#X connect 43 0 5 1;
#X connect 44 0 7 1;
#X connect 45 0 17 1;
#X connect 46 0 43 0;
#X connect 47 0 44 0;
#X connect 48 0 45 0;
#X connect 49 0 42 0;
#X connect 50 0 3 0;
#X connect 52 0 23 1;
#X connect 52 0 22 1;
#X connect 52 0 21 1;
#X connect 52 0 20 1;
#X connect 53 0 17 0;
#X connect 54 0 7 0;
#X connect 55 0 5 0;
#X connect 56 0 2 0;
#X connect 57 0 53 0;
#X connect 58 0 54 0;
#X connect 59 0 55 0;
#X connect 60 0 56 0;
#X connect 61 0 83 0;
#X connect 62 0 83 0;
#X connect 63 0 83 0;
#X connect 64 0 83 0;
#X connect 65 0 60 0;
#X connect 66 0 59 0;
#X connect 67 0 58 0;
#X connect 68 0 57 0;
#X connect 70 0 1 0;
#X connect 70 0 65 0;
#X connect 71 0 4 0;
#X connect 71 0 66 0;
#X connect 72 0 6 0;
#X connect 72 0 67 0;
#X connect 73 0 16 0;
#X connect 73 0 68 0;
#X connect 74 0 3 0;
#X connect 75 0 32 1;
#X connect 76 0 75 0;
#X connect 77 0 31 1;
#X connect 78 0 77 0;
#X connect 79 0 30 1;
#X connect 80 0 79 0;
#X connect 81 0 29 1;
#X connect 82 0 81 0;
#X connect 83 0 8 0;
#X connect 83 0 8 1;
#X connect 84 0 87 0;
#X connect 85 0 88 0;
#X connect 86 0 83 0;
#X connect 87 0 92 0;
#X connect 88 0 91 0;
#X connect 89 0 86 0;
#X connect 90 0 84 1;
#X connect 90 0 87 1;
#X connect 90 0 85 1;
#X connect 90 0 88 1;
#X connect 90 0 89 1;
#X connect 91 0 84 0;
#X connect 92 0 89 0;
#X connect 93 0 85 0;
#X connect 93 0 101 0;
#X connect 93 0 109 0;
#X connect 93 0 117 0;
#X connect 94 0 135 0;
#X connect 94 0 135 1;
#X connect 95 0 96 0;
#X connect 96 0 98 0;
#X connect 96 1 97 0;
#X connect 97 0 99 0;
#X connect 98 0 134 0;
#X connect 99 0 93 1;
#X connect 100 0 102 0;
#X connect 101 0 103 0;
#X connect 102 0 107 0;
#X connect 103 0 106 0;
#X connect 104 0 86 0;
#X connect 105 0 100 1;
#X connect 105 0 102 1;
#X connect 105 0 101 1;
#X connect 105 0 103 1;
#X connect 105 0 104 1;
#X connect 106 0 100 0;
#X connect 107 0 104 0;
#X connect 108 0 110 0;
#X connect 109 0 111 0;
#X connect 110 0 115 0;
#X connect 111 0 114 0;
#X connect 112 0 86 0;
#X connect 113 0 108 1;
#X connect 113 0 110 1;
#X connect 113 0 109 1;
#X connect 113 0 111 1;
#X connect 113 0 112 1;
#X connect 114 0 108 0;
#X connect 115 0 112 0;
#X connect 116 0 118 0;
#X connect 117 0 119 0;
#X connect 118 0 123 0;
#X connect 119 0 122 0;
#X connect 120 0 86 0;
#X connect 121 0 116 1;
#X connect 121 0 118 1;
#X connect 121 0 117 1;
#X connect 121 0 119 1;
#X connect 121 0 120 1;
#X connect 122 0 116 0;
#X connect 123 0 120 0;
#X connect 124 0 90 0;
#X connect 125 0 105 0;
#X connect 126 0 113 0;
#X connect 127 0 121 0;
#X connect 128 0 124 0;
#X connect 128 0 125 0;
#X connect 128 0 126 0;
#X connect 128 0 127 0;
#X connect 128 0 95 0;
#X connect 129 0 130 0;
#X connect 129 0 131 0;
#X connect 129 0 132 0;
#X connect 129 0 133 0;
#X connect 129 0 95 0;
#X connect 130 0 90 0;
#X connect 131 0 105 0;
#X connect 132 0 113 0;
#X connect 133 0 121 0;
#X connect 134 0 99 0;
#X connect 135 0 93 0;
#X connect 136 0 128 0;
#X connect 137 0 129 0;
#X connect 138 0 141 0;
#X connect 139 0 142 0;
#X connect 140 0 83 0;
#X connect 141 0 146 0;
#X connect 142 0 145 0;
#X connect 143 0 140 0;
#X connect 144 0 138 1;
#X connect 144 0 141 1;
#X connect 144 0 139 1;
#X connect 144 0 142 1;
#X connect 144 0 143 1;
#X connect 145 0 138 0;
#X connect 146 0 143 0;
#X connect 147 0 139 0;
#X connect 147 0 154 0;
#X connect 147 0 162 0;
#X connect 147 0 170 0;
#X connect 148 0 149 0;
#X connect 149 0 151 0;
#X connect 149 1 150 0;
#X connect 150 0 152 0;
#X connect 151 0 183 0;
#X connect 152 0 147 1;
#X connect 153 0 155 0;
#X connect 154 0 156 0;
#X connect 155 0 160 0;
#X connect 156 0 159 0;
#X connect 157 0 140 0;
#X connect 158 0 153 1;
#X connect 158 0 155 1;
#X connect 158 0 154 1;
#X connect 158 0 156 1;
#X connect 158 0 157 1;
#X connect 159 0 153 0;
#X connect 160 0 157 0;
#X connect 161 0 163 0;
#X connect 162 0 164 0;
#X connect 163 0 168 0;
#X connect 164 0 167 0;
#X connect 165 0 140 0;
#X connect 166 0 161 1;
#X connect 166 0 163 1;
#X connect 166 0 162 1;
#X connect 166 0 164 1;
#X connect 166 0 165 1;
#X connect 167 0 161 0;
#X connect 168 0 165 0;
#X connect 169 0 171 0;
#X connect 170 0 172 0;
#X connect 171 0 176 0;
#X connect 172 0 175 0;
#X connect 173 0 140 0;
#X connect 174 0 169 1;
#X connect 174 0 171 1;
#X connect 174 0 170 1;
#X connect 174 0 172 1;
#X connect 174 0 173 1;
#X connect 175 0 169 0;
#X connect 176 0 173 0;
#X connect 177 0 144 0;
#X connect 178 0 158 0;
#X connect 179 0 166 0;
#X connect 180 0 174 0;
#X connect 181 0 177 0;
#X connect 181 0 178 0;
#X connect 181 0 179 0;
#X connect 181 0 180 0;
#X connect 181 0 148 0;
#X connect 182 0 186 0;
#X connect 182 0 186 1;
#X connect 183 0 152 0;
#X connect 184 0 181 0;
#X connect 185 0 182 0;
#X connect 185 0 182 1;
#X connect 186 0 147 0;
