#N canvas 17 8 1343 696 12;
#X obj 212 -342 loadbang;
#X obj -24 -81 mtof;
#X obj -22 194 *~;
#X obj 676 428 *~;
#X obj 829 409 line~;
#X obj 124 -80 mtof;
#X obj 124 195 *~;
#X obj 270 -80 mtof;
#X obj 270 195 *~;
#X obj 651 828 dac~;
#X msg 151 -271 bang;
#X obj 270 -53 phasor~;
#X obj 271 -24 -~ 0.5;
#X obj 124 -51 phasor~;
#X obj 125 -22 -~ 0.5;
#X obj -24 -51 phasor~;
#X obj -23 -22 -~ 0.5;
#X obj 414 -81 mtof;
#X obj 414 194 *~;
#X obj 414 -54 phasor~;
#X obj 415 -25 -~ 0.5;
#X obj -23 36 lop~ 10;
#X obj 125 36 lop~ 10;
#X obj 270 40 lop~ 10;
#X obj 414 39 lop~ 10;
#X msg 290 -271 bang;
#X obj -23 6 *~ 2;
#X obj 125 6 *~ 2;
#X obj 271 4 *~ 2;
#X obj 415 3 *~ 2;
#X obj -22 350 *~;
#X obj 124 351 *~;
#X obj 270 351 *~;
#X obj 414 350 *~;
#X obj 289 111 receive pjstween3;
#X obj 432 85 receive pjstween4;
#X obj 142 86 receive pjstween2;
#X obj -4 64 receive pjstween1;
#X obj -4 218 receive pjsvol1;
#X obj 142 240 receive pjsvol2;
#X obj 288 263 receive pjsvol3;
#X obj 432 239 receive pjsvol4;
#X obj 959 383 receive pjsquit;
#X obj -4 162 line~;
#X obj 142 164 line~;
#X obj 289 167 line~;
#X obj 432 170 line~;
#X msg 142 136 \$1 50;
#X msg 289 139 \$1 50;
#X msg 432 142 \$1 50;
#X msg -4 134 \$1 50;
#X msg 894 409 0.5 500;
#X text -24 -139 Pads;
#X msg 290 -246 50;
#X obj 476 -53 osc~ 0.5;
#X obj 328 -53 osc~ 0.5;
#X obj 187 -50 osc~ 0.5;
#X obj 39 -50 osc~ 0.5;
#X obj 476 -76 mtof;
#X obj 328 -78 mtof;
#X obj 187 -75 mtof;
#X obj 39 -75 mtof;
#X obj -23 379 *~ 0.15;
#X obj 125 379 *~ 0.15;
#X obj 271 379 *~ 0.15;
#X obj 415 378 *~ 0.15;
#X obj 39 -100 - 12;
#X obj 187 -100 - 12;
#X obj 328 -103 - 12;
#X obj 476 -101 - 12;
#X msg -24 -105 63;
#X msg 124 -104 66;
#X msg 270 -104 70;
#X msg 611 236 bang;
#X msg 414 -105 73;
#X obj 455 322 line~;
#X msg 455 294 \$1 5;
#X obj 311 327 line~;
#X msg 311 299 \$1 5;
#X obj 165 327 line~;
#X msg 165 299 \$1 5;
#X obj 19 324 line~;
#X msg 19 296 \$1 5;
#X obj 785 56 hip~;
#X obj 785 -4 lop~;
#X obj 929 216 *~ 1;
#X obj 785 75 hip~;
#X obj 785 16 lop~;
#X obj 785 115 lop~;
#X obj 806 -24 t f;
#X obj 785 36 *~ 3;
#X obj 785 95 *~ 0.5;
#X obj 776 -115 *~;
#X msg 831 -214 bang;
#X obj 831 -194 t b b;
#X msg 887 -174 1 5;
#X obj 831 -174 delay 10;
#X obj 831 -129 line~;
#X obj 834 56 hip~;
#X obj 834 -4 lop~;
#X obj 834 75 hip~;
#X obj 834 16 lop~;
#X obj 834 115 lop~;
#X obj 855 -24 t f;
#X obj 834 36 *~ 3;
#X obj 834 95 *~ 0.5;
#X obj 881 56 hip~;
#X obj 881 -4 lop~;
#X obj 881 75 hip~;
#X obj 881 16 lop~;
#X obj 881 115 lop~;
#X obj 902 -24 t f;
#X obj 881 36 *~ 3;
#X obj 881 95 *~ 0.5;
#X obj 928 57 hip~;
#X obj 928 -3 lop~;
#X obj 928 76 hip~;
#X obj 928 17 lop~;
#X obj 928 116 lop~;
#X obj 949 -23 t f;
#X obj 928 37 *~ 3;
#X obj 928 96 *~ 0.5;
#X msg 958 -208 221;
#X msg 988 -208 333;
#X msg 1020 -208 426;
#X msg 1050 -208 527;
#X msg 910 -261 bang wood;
#X obj 777 -168 *~;
#X msg 831 -153 0 15;
#X obj 910 -300 r pjshit;
#X obj 776 -192 noise~;
#X obj 777 -142 *~;
#X obj 1188 -89 trigger bang;
#X obj 1188 26 line~;
#X obj 1188 -57 trigger bang bang;
#X msg 1304 -32 1 1;
#X obj 1188 -31 delay 1;
#X obj 1190 201 *~ 0.5;
#X obj 1189 173 *~;
#X obj 1206 81 noise~;
#X msg 1188 -2 0 10;
#X obj 1206 108 lop~ 2000;
#X obj 1206 136 hip~ 1000;
#X obj 1178 -178 receive pjstick;
#X text 1194 -118 tick;
#X msg 959 409 0 50;
#X connect 0 0 10 0;
#X connect 0 0 25 0;
#X connect 0 0 73 0;
#X connect 1 0 15 0;
#X connect 2 0 30 0;
#X connect 3 0 9 0;
#X connect 3 0 9 1;
#X connect 4 0 3 1;
#X connect 5 0 13 0;
#X connect 6 0 31 0;
#X connect 7 0 11 0;
#X connect 8 0 32 0;
#X connect 10 0 72 0;
#X connect 10 0 71 0;
#X connect 10 0 70 0;
#X connect 10 0 74 0;
#X connect 11 0 12 0;
#X connect 12 0 28 0;
#X connect 13 0 14 0;
#X connect 14 0 27 0;
#X connect 15 0 16 0;
#X connect 16 0 26 0;
#X connect 17 0 19 0;
#X connect 18 0 33 0;
#X connect 19 0 20 0;
#X connect 20 0 29 0;
#X connect 21 0 2 0;
#X connect 22 0 6 0;
#X connect 23 0 8 0;
#X connect 24 0 18 0;
#X connect 25 0 53 0;
#X connect 25 0 51 0;
#X connect 26 0 21 0;
#X connect 27 0 22 0;
#X connect 28 0 23 0;
#X connect 29 0 24 0;
#X connect 30 0 62 0;
#X connect 31 0 63 0;
#X connect 32 0 64 0;
#X connect 33 0 65 0;
#X connect 34 0 48 0;
#X connect 35 0 49 0;
#X connect 36 0 47 0;
#X connect 37 0 50 0;
#X connect 38 0 82 0;
#X connect 39 0 80 0;
#X connect 40 0 78 0;
#X connect 41 0 76 0;
#X connect 42 0 145 0;
#X connect 43 0 2 1;
#X connect 44 0 6 1;
#X connect 45 0 8 1;
#X connect 46 0 18 1;
#X connect 47 0 44 0;
#X connect 48 0 45 0;
#X connect 49 0 46 0;
#X connect 50 0 43 0;
#X connect 51 0 4 0;
#X connect 53 0 24 1;
#X connect 53 0 23 1;
#X connect 53 0 22 1;
#X connect 53 0 21 1;
#X connect 54 0 18 0;
#X connect 55 0 8 0;
#X connect 56 0 6 0;
#X connect 57 0 2 0;
#X connect 58 0 54 0;
#X connect 59 0 55 0;
#X connect 60 0 56 0;
#X connect 61 0 57 0;
#X connect 62 0 3 0;
#X connect 63 0 3 0;
#X connect 64 0 3 0;
#X connect 65 0 3 0;
#X connect 66 0 61 0;
#X connect 67 0 60 0;
#X connect 68 0 59 0;
#X connect 69 0 58 0;
#X connect 70 0 1 0;
#X connect 70 0 66 0;
#X connect 71 0 5 0;
#X connect 71 0 67 0;
#X connect 72 0 7 0;
#X connect 72 0 68 0;
#X connect 74 0 17 0;
#X connect 74 0 69 0;
#X connect 75 0 33 1;
#X connect 76 0 75 0;
#X connect 77 0 32 1;
#X connect 78 0 77 0;
#X connect 79 0 31 1;
#X connect 80 0 79 0;
#X connect 81 0 30 1;
#X connect 82 0 81 0;
#X connect 83 0 86 0;
#X connect 84 0 87 0;
#X connect 85 0 3 0;
#X connect 86 0 91 0;
#X connect 87 0 90 0;
#X connect 88 0 85 0;
#X connect 89 0 83 1;
#X connect 89 0 86 1;
#X connect 89 0 84 1;
#X connect 89 0 87 1;
#X connect 89 0 88 1;
#X connect 90 0 83 0;
#X connect 91 0 88 0;
#X connect 92 0 84 0;
#X connect 92 0 99 0;
#X connect 92 0 107 0;
#X connect 92 0 115 0;
#X connect 93 0 94 0;
#X connect 94 0 96 0;
#X connect 94 1 95 0;
#X connect 95 0 97 0;
#X connect 96 0 128 0;
#X connect 97 0 92 1;
#X connect 98 0 100 0;
#X connect 99 0 101 0;
#X connect 100 0 105 0;
#X connect 101 0 104 0;
#X connect 102 0 85 0;
#X connect 103 0 98 1;
#X connect 103 0 100 1;
#X connect 103 0 99 1;
#X connect 103 0 101 1;
#X connect 103 0 102 1;
#X connect 104 0 98 0;
#X connect 105 0 102 0;
#X connect 106 0 108 0;
#X connect 107 0 109 0;
#X connect 108 0 113 0;
#X connect 109 0 112 0;
#X connect 110 0 85 0;
#X connect 111 0 106 1;
#X connect 111 0 108 1;
#X connect 111 0 107 1;
#X connect 111 0 109 1;
#X connect 111 0 110 1;
#X connect 112 0 106 0;
#X connect 113 0 110 0;
#X connect 114 0 116 0;
#X connect 115 0 117 0;
#X connect 116 0 121 0;
#X connect 117 0 120 0;
#X connect 118 0 85 0;
#X connect 119 0 114 1;
#X connect 119 0 116 1;
#X connect 119 0 115 1;
#X connect 119 0 117 1;
#X connect 119 0 118 1;
#X connect 120 0 114 0;
#X connect 121 0 118 0;
#X connect 122 0 89 0;
#X connect 123 0 103 0;
#X connect 124 0 111 0;
#X connect 125 0 119 0;
#X connect 126 0 122 0;
#X connect 126 0 123 0;
#X connect 126 0 124 0;
#X connect 126 0 125 0;
#X connect 126 0 93 0;
#X connect 127 0 131 0;
#X connect 127 0 131 1;
#X connect 128 0 97 0;
#X connect 129 0 126 0;
#X connect 130 0 127 0;
#X connect 130 0 127 1;
#X connect 131 0 92 0;
#X connect 132 0 134 0;
#X connect 133 0 138 0;
#X connect 134 0 136 0;
#X connect 134 1 135 0;
#X connect 135 0 133 0;
#X connect 136 0 140 0;
#X connect 137 0 3 0;
#X connect 138 0 137 0;
#X connect 139 0 141 0;
#X connect 140 0 133 0;
#X connect 141 0 142 0;
#X connect 142 0 138 1;
#X connect 143 0 132 0;
#X connect 145 0 4 0;
