#N canvas 17 8 1343 679 12;
#X obj 212 -342 loadbang;
#X obj -24 -81 mtof;
#X obj -22 194 *~;
#X obj 646 645 *~;
#X obj 759 442 line~;
#X obj 124 -80 mtof;
#X obj 124 195 *~;
#X obj 270 -80 mtof;
#X obj 270 195 *~;
#X obj 651 828 dac~;
#X msg 151 -271 bang;
#X obj 270 -53 phasor~;
#X obj 271 -24 -~ 0.5;
#X obj 124 -51 phasor~;
#X obj 125 -22 -~ 0.5;
#X obj -24 -51 phasor~;
#X obj -23 -22 -~ 0.5;
#X obj 414 -81 mtof;
#X obj 414 194 *~;
#X obj 414 -54 phasor~;
#X obj 415 -25 -~ 0.5;
#X obj -23 36 lop~ 10;
#X obj 125 36 lop~ 10;
#X obj 270 40 lop~ 10;
#X obj 414 39 lop~ 10;
#X msg 290 -271 bang;
#X obj -23 6 *~ 2;
#X obj 125 6 *~ 2;
#X obj 271 4 *~ 2;
#X obj 415 3 *~ 2;
#X obj -22 340 *~;
#X obj 124 341 *~;
#X obj 270 341 *~;
#X obj 414 340 *~;
#X obj 289 111 receive pjstween3;
#X obj 432 85 receive pjstween4;
#X obj 142 86 receive pjstween2;
#X obj -4 64 receive pjstween1;
#X obj -4 218 receive pjsvol1;
#X obj 142 240 receive pjsvol2;
#X obj 288 263 receive pjsvol3;
#X obj 432 239 receive pjsvol4;
#X obj 782 370 receive pjsquit;
#X obj -4 162 line~;
#X obj 142 164 line~;
#X obj 289 167 line~;
#X obj 432 170 line~;
#X msg 142 136 \$1 50;
#X msg 289 139 \$1 50;
#X msg 432 142 \$1 50;
#X msg -4 134 \$1 50;
#X obj 675 19 line~;
#X obj 737 42 line~;
#X obj 676 45 osc~;
#X obj 677 78 *~;
#X obj 675 -64 trigger bang bang bang bang;
#X msg 861 -39 1 5;
#X msg 799 -38 100 1;
#X obj 737 -39 delay 5;
#X obj 675 -38 delay 1;
#X msg 737 -10 0 150;
#X msg 675 -10 0 150;
#X obj 896 41 line~;
#X obj 958 67 line~;
#X obj 896 93 *~;
#X obj 896 -40 trigger bang bang bang bang;
#X msg 1082 -15 1 5;
#X obj 958 -15 delay 5;
#X obj 896 -14 delay 1;
#X obj 897 67 phasor~;
#X obj 895 118 *~ 0.5;
#X obj 1025 147 line~;
#X obj 951 173 *~;
#X msg 1141 89 1 5;
#X obj 1025 90 delay 5;
#X obj 1025 64 trigger bang bang;
#X obj 950 119 noise~;
#X obj 896 -66 trigger bang bang;
#X obj 896 193 +~;
#X obj 675 -258 random 100;
#X obj 675 -90 trigger bang;
#X obj 896 -94 trigger bang;
#X obj 675 -297 receive pjsdrums;
#X msg 717 396 0.5 500;
#X msg 1020 -14 500 1;
#X msg 1025 119 0 99;
#X text 692 -114 Kick;
#X text 910 -117 Snare;
#X text -24 -139 Pads;
#X obj 1178 -99 trigger bang;
#X obj 1178 16 line~;
#X obj 1178 -67 trigger bang bang;
#X msg 1294 -42 1 1;
#X obj 1178 -41 delay 1;
#X msg 1178 -12 0 50;
#X obj 1180 191 *~ 0.5;
#X obj 1179 163 *~;
#X obj 1196 106 noise~;
#X obj 1196 133 hip~ 5000;
#X obj 1345 -96 trigger bang;
#X obj 1345 17 line~;
#X obj 1345 -66 trigger bang bang;
#X msg 1461 -41 1 1;
#X obj 1345 -40 delay 1;
#X obj 1347 194 *~ 0.5;
#X obj 1346 166 *~;
#X obj 1364 112 noise~;
#X msg 1345 -11 0 149;
#X obj 1364 139 hip~ 3000;
#X text 1184 -128 Hihat closed;
#X text 1343 -129 Hihat open;
#X text 898 -226 probabilities;
#X msg 290 -246 50;
#X obj 476 -53 osc~ 0.5;
#X obj 328 -53 osc~ 0.5;
#X obj 187 -50 osc~ 0.5;
#X obj 39 -50 osc~ 0.5;
#X obj 476 -76 mtof;
#X obj 328 -78 mtof;
#X obj 187 -75 mtof;
#X obj 39 -75 mtof;
#X obj -23 369 *~ 0.15;
#X obj 125 369 *~ 0.15;
#X obj 271 369 *~ 0.15;
#X obj 415 368 *~ 0.15;
#X obj 39 -100 - 12;
#X obj 187 -100 - 12;
#X obj 328 -103 - 12;
#X obj 476 -101 - 12;
#X obj 675 -224 moses 65;
#X obj 744 -223 moses 90;
#X obj 813 -223 moses 95;
#X msg 611 236 bang;
#X obj 941 540 delread~ \$0-A 100;
#X obj 971 560 delread~ \$0-B 161.8;
#X obj 1001 580 delread~ \$0-C 261.8;
#X obj 1031 600 delread~ \$0-D 61.8;
#X obj 887 594 +~;
#X obj 929 594 +~;
#X obj 872 644 +~;
#X obj 976 645 +~;
#X obj 914 644 -~;
#X obj 1016 644 -~;
#X obj 871 700 +~;
#X obj 915 701 +~;
#X obj 959 702 -~;
#X obj 998 702 -~;
#X obj 958 784 *~ 0;
#X obj 916 783 *~ 0;
#X obj 871 782 *~ 0;
#X obj 999 785 *~ 0;
#X obj 998 805 delwrite~ \$0-D 1000;
#X obj 959 828 delwrite~ \$0-C 1000;
#X obj 917 851 delwrite~ \$0-B 1000;
#X obj 872 873 delwrite~ \$0-A 1000;
#X obj 1096 748 / 200;
#X obj 941 519 * 1;
#X obj 971 519 * 1.618;
#X obj 1031 519 * 2.618;
#X obj 1091 519 / 1.618;
#X obj 951 479 f;
#X obj 1096 670 f;
#X msg 951 447 50;
#X msg -24 -105 70;
#X msg 124 -104 73;
#X msg 270 -104 77;
#X msg 414 -105 82;
#X msg 782 396 0 50;
#X msg -6 261 \$1 5;
#X obj -7 289 line~;
#X msg 144 285 \$1 5;
#X obj 143 313 line~;
#X msg 287 289 \$1 5;
#X obj 286 317 line~;
#X msg 432 281 \$1 5;
#X obj 431 309 line~;
#X obj 950 146 lop~ 800;
#X msg 896 14 0 150;
#X msg 958 14 0 75;
#X obj 728 643 *~;
#X obj 781 645 *~;
#X msg 1096 637 60;
#X connect 0 0 10 0;
#X connect 0 0 25 0;
#X connect 0 0 132 0;
#X connect 1 0 15 0;
#X connect 2 0 30 0;
#X connect 3 0 9 0;
#X connect 3 0 9 1;
#X connect 4 0 3 1;
#X connect 4 0 179 1;
#X connect 4 0 180 1;
#X connect 5 0 13 0;
#X connect 6 0 31 0;
#X connect 7 0 11 0;
#X connect 8 0 32 0;
#X connect 10 0 165 0;
#X connect 10 0 164 0;
#X connect 10 0 163 0;
#X connect 10 0 166 0;
#X connect 11 0 12 0;
#X connect 12 0 28 0;
#X connect 13 0 14 0;
#X connect 14 0 27 0;
#X connect 15 0 16 0;
#X connect 16 0 26 0;
#X connect 17 0 19 0;
#X connect 18 0 33 0;
#X connect 19 0 20 0;
#X connect 20 0 29 0;
#X connect 21 0 2 0;
#X connect 22 0 6 0;
#X connect 23 0 8 0;
#X connect 24 0 18 0;
#X connect 25 0 112 0;
#X connect 25 0 83 0;
#X connect 26 0 21 0;
#X connect 27 0 22 0;
#X connect 28 0 23 0;
#X connect 29 0 24 0;
#X connect 30 0 121 0;
#X connect 31 0 122 0;
#X connect 32 0 123 0;
#X connect 33 0 124 0;
#X connect 34 0 48 0;
#X connect 35 0 49 0;
#X connect 36 0 47 0;
#X connect 37 0 50 0;
#X connect 38 0 168 0;
#X connect 39 0 170 0;
#X connect 40 0 172 0;
#X connect 41 0 174 0;
#X connect 42 0 167 0;
#X connect 43 0 2 1;
#X connect 44 0 6 1;
#X connect 45 0 8 1;
#X connect 46 0 18 1;
#X connect 47 0 44 0;
#X connect 48 0 45 0;
#X connect 49 0 46 0;
#X connect 50 0 43 0;
#X connect 51 0 53 0;
#X connect 52 0 54 1;
#X connect 53 0 54 0;
#X connect 54 0 137 0;
#X connect 54 0 138 0;
#X connect 55 0 59 0;
#X connect 55 1 58 0;
#X connect 55 2 57 0;
#X connect 55 3 56 0;
#X connect 56 0 52 0;
#X connect 57 0 51 0;
#X connect 58 0 60 0;
#X connect 59 0 61 0;
#X connect 60 0 52 0;
#X connect 61 0 51 0;
#X connect 62 0 69 0;
#X connect 63 0 64 1;
#X connect 64 0 70 0;
#X connect 65 0 68 0;
#X connect 65 1 67 0;
#X connect 65 2 84 0;
#X connect 65 3 66 0;
#X connect 66 0 63 0;
#X connect 67 0 178 0;
#X connect 68 0 177 0;
#X connect 69 0 64 0;
#X connect 70 0 78 0;
#X connect 71 0 72 1;
#X connect 72 0 78 1;
#X connect 73 0 71 0;
#X connect 74 0 85 0;
#X connect 75 0 74 0;
#X connect 75 1 73 0;
#X connect 76 0 176 0;
#X connect 77 0 65 0;
#X connect 77 1 75 0;
#X connect 78 0 137 0;
#X connect 78 0 138 0;
#X connect 79 0 129 0;
#X connect 80 0 55 0;
#X connect 81 0 77 0;
#X connect 82 0 79 0;
#X connect 83 0 4 0;
#X connect 84 0 62 0;
#X connect 85 0 71 0;
#X connect 89 0 91 0;
#X connect 90 0 96 0;
#X connect 91 0 93 0;
#X connect 91 1 92 0;
#X connect 92 0 90 0;
#X connect 93 0 94 0;
#X connect 94 0 90 0;
#X connect 95 0 137 0;
#X connect 95 0 138 0;
#X connect 96 0 95 0;
#X connect 97 0 98 0;
#X connect 98 0 96 1;
#X connect 99 0 101 0;
#X connect 100 0 105 0;
#X connect 101 0 103 0;
#X connect 101 1 102 0;
#X connect 102 0 100 0;
#X connect 103 0 107 0;
#X connect 104 0 138 0;
#X connect 104 0 137 0;
#X connect 105 0 104 0;
#X connect 106 0 108 0;
#X connect 107 0 100 0;
#X connect 108 0 105 1;
#X connect 112 0 24 1;
#X connect 112 0 23 1;
#X connect 112 0 22 1;
#X connect 112 0 21 1;
#X connect 113 0 18 0;
#X connect 114 0 8 0;
#X connect 115 0 6 0;
#X connect 116 0 2 0;
#X connect 117 0 113 0;
#X connect 118 0 114 0;
#X connect 119 0 115 0;
#X connect 120 0 116 0;
#X connect 121 0 3 0;
#X connect 122 0 3 0;
#X connect 123 0 3 0;
#X connect 124 0 3 0;
#X connect 125 0 120 0;
#X connect 126 0 119 0;
#X connect 127 0 118 0;
#X connect 128 0 117 0;
#X connect 129 0 80 0;
#X connect 129 1 130 0;
#X connect 130 0 81 0;
#X connect 130 1 131 0;
#X connect 131 0 89 0;
#X connect 131 1 99 0;
#X connect 132 0 162 0;
#X connect 132 0 181 0;
#X connect 133 0 137 1;
#X connect 134 0 138 1;
#X connect 135 0 142 0;
#X connect 135 0 140 0;
#X connect 136 0 142 1;
#X connect 136 0 140 1;
#X connect 137 0 139 0;
#X connect 137 0 141 0;
#X connect 137 0 179 0;
#X connect 138 0 139 1;
#X connect 138 0 141 1;
#X connect 138 0 180 0;
#X connect 139 0 143 0;
#X connect 139 0 145 0;
#X connect 140 0 145 1;
#X connect 140 0 143 1;
#X connect 141 0 144 0;
#X connect 141 0 146 0;
#X connect 142 0 144 1;
#X connect 142 0 146 1;
#X connect 143 0 149 0;
#X connect 144 0 148 0;
#X connect 145 0 147 0;
#X connect 146 0 150 0;
#X connect 147 0 152 0;
#X connect 148 0 153 0;
#X connect 149 0 154 0;
#X connect 150 0 151 0;
#X connect 155 0 150 1;
#X connect 155 0 147 1;
#X connect 155 0 148 1;
#X connect 155 0 149 1;
#X connect 156 0 133 0;
#X connect 157 0 134 0;
#X connect 158 0 135 0;
#X connect 159 0 136 0;
#X connect 160 0 156 0;
#X connect 160 0 157 0;
#X connect 160 0 158 0;
#X connect 160 0 159 0;
#X connect 161 0 155 0;
#X connect 162 0 160 0;
#X connect 163 0 1 0;
#X connect 163 0 125 0;
#X connect 164 0 5 0;
#X connect 164 0 126 0;
#X connect 165 0 7 0;
#X connect 165 0 127 0;
#X connect 166 0 17 0;
#X connect 166 0 128 0;
#X connect 167 0 4 0;
#X connect 168 0 169 0;
#X connect 169 0 30 1;
#X connect 170 0 171 0;
#X connect 171 0 31 1;
#X connect 172 0 173 0;
#X connect 173 0 32 1;
#X connect 174 0 175 0;
#X connect 175 0 33 1;
#X connect 176 0 72 0;
#X connect 177 0 62 0;
#X connect 178 0 63 0;
#X connect 179 0 9 0;
#X connect 180 0 9 1;
#X connect 181 0 161 0;
