#N canvas 17 8 1343 696 12;
#X obj 212 -342 loadbang;
#X obj -24 -81 mtof;
#X obj -22 194 *~;
#X obj 676 428 *~;
#X obj 829 409 line~;
#X obj 124 -80 mtof;
#X obj 124 195 *~;
#X obj 270 -80 mtof;
#X obj 270 195 *~;
#X obj 651 828 dac~;
#X msg 151 -271 bang;
#X obj 270 -53 phasor~;
#X obj 271 -24 -~ 0.5;
#X obj 124 -51 phasor~;
#X obj 125 -22 -~ 0.5;
#X obj -24 -51 phasor~;
#X obj -23 -22 -~ 0.5;
#X obj 414 -81 mtof;
#X obj 414 194 *~;
#X obj 414 -54 phasor~;
#X obj 415 -25 -~ 0.5;
#X obj -23 36 lop~ 10;
#X obj 125 36 lop~ 10;
#X obj 270 40 lop~ 10;
#X obj 414 39 lop~ 10;
#X msg 290 -271 bang;
#X obj -23 6 *~ 2;
#X obj 125 6 *~ 2;
#X obj 271 4 *~ 2;
#X obj 415 3 *~ 2;
#X obj -22 339 *~;
#X obj 124 340 *~;
#X obj 270 340 *~;
#X obj 414 339 *~;
#X obj 289 111 receive pjstween3;
#X obj 432 85 receive pjstween4;
#X obj 142 86 receive pjstween2;
#X obj -4 64 receive pjstween1;
#X obj -4 218 receive pjsvol1;
#X obj 142 240 receive pjsvol2;
#X obj 288 263 receive pjsvol3;
#X obj 432 239 receive pjsvol4;
#X obj 959 383 receive pjsquit;
#X obj -4 162 line~;
#X obj 142 164 line~;
#X obj 289 167 line~;
#X obj 432 170 line~;
#X msg 142 136 \$1 50;
#X msg 289 139 \$1 50;
#X msg 432 142 \$1 50;
#X msg -4 134 \$1 50;
#X text -24 -139 Pads;
#X obj 1178 -99 trigger bang;
#X obj 1178 16 line~;
#X obj 1178 -67 trigger bang bang;
#X msg 1294 -42 1 1;
#X obj 1178 -41 delay 1;
#X obj 1180 191 *~ 0.5;
#X obj 1179 163 *~;
#X obj 1196 71 noise~;
#X msg 290 -246 50;
#X obj 476 -53 osc~ 0.5;
#X obj 328 -53 osc~ 0.5;
#X obj 187 -50 osc~ 0.5;
#X obj 39 -50 osc~ 0.5;
#X obj 476 -76 mtof;
#X obj 328 -78 mtof;
#X obj 187 -75 mtof;
#X obj 39 -75 mtof;
#X obj -23 368 *~ 0.15;
#X obj 125 368 *~ 0.15;
#X obj 271 368 *~ 0.15;
#X obj 415 367 *~ 0.15;
#X obj 39 -100 - 12;
#X obj 187 -100 - 12;
#X obj 328 -103 - 12;
#X obj 476 -101 - 12;
#X msg -24 -105 63;
#X msg 124 -104 66;
#X msg 270 -104 70;
#X msg 414 -105 75;
#X msg 611 236 bang;
#X msg 894 409 0.5 500;
#X obj 432 311 line~;
#X msg 432 283 \$1 5;
#X obj 288 316 line~;
#X msg 288 288 \$1 5;
#X obj 142 316 line~;
#X msg 142 288 \$1 5;
#X obj -4 313 line~;
#X msg -4 285 \$1 5;
#X msg 959 409 0 50;
#X msg 1178 -12 0 10;
#X obj 1196 98 lop~ 2000;
#X obj 1196 126 hip~ 1000;
#X obj 1168 -188 receive pjstick;
#X text 1184 -128 tick;
#X obj 123 472 clip~ -1 1;
#X connect 0 0 10 0;
#X connect 0 0 25 0;
#X connect 0 0 81 0;
#X connect 1 0 15 0;
#X connect 2 0 30 0;
#X connect 3 0 9 0;
#X connect 3 0 9 1;
#X connect 4 0 3 1;
#X connect 5 0 13 0;
#X connect 6 0 31 0;
#X connect 7 0 11 0;
#X connect 8 0 32 0;
#X connect 10 0 79 0;
#X connect 10 0 78 0;
#X connect 10 0 77 0;
#X connect 10 0 80 0;
#X connect 11 0 12 0;
#X connect 12 0 28 0;
#X connect 13 0 14 0;
#X connect 14 0 27 0;
#X connect 15 0 16 0;
#X connect 16 0 26 0;
#X connect 17 0 19 0;
#X connect 18 0 33 0;
#X connect 19 0 20 0;
#X connect 20 0 29 0;
#X connect 21 0 2 0;
#X connect 22 0 6 0;
#X connect 23 0 8 0;
#X connect 24 0 18 0;
#X connect 25 0 60 0;
#X connect 25 0 82 0;
#X connect 26 0 21 0;
#X connect 27 0 22 0;
#X connect 28 0 23 0;
#X connect 29 0 24 0;
#X connect 30 0 69 0;
#X connect 31 0 70 0;
#X connect 32 0 71 0;
#X connect 33 0 72 0;
#X connect 34 0 48 0;
#X connect 35 0 49 0;
#X connect 36 0 47 0;
#X connect 37 0 50 0;
#X connect 38 0 90 0;
#X connect 39 0 88 0;
#X connect 40 0 86 0;
#X connect 41 0 84 0;
#X connect 42 0 91 0;
#X connect 43 0 2 1;
#X connect 44 0 6 1;
#X connect 45 0 8 1;
#X connect 46 0 18 1;
#X connect 47 0 44 0;
#X connect 48 0 45 0;
#X connect 49 0 46 0;
#X connect 50 0 43 0;
#X connect 52 0 54 0;
#X connect 53 0 58 0;
#X connect 54 0 56 0;
#X connect 54 1 55 0;
#X connect 55 0 53 0;
#X connect 56 0 92 0;
#X connect 57 0 3 0;
#X connect 58 0 57 0;
#X connect 59 0 93 0;
#X connect 60 0 24 1;
#X connect 60 0 23 1;
#X connect 60 0 22 1;
#X connect 60 0 21 1;
#X connect 61 0 18 0;
#X connect 62 0 8 0;
#X connect 63 0 6 0;
#X connect 64 0 2 0;
#X connect 65 0 61 0;
#X connect 66 0 62 0;
#X connect 67 0 63 0;
#X connect 68 0 64 0;
#X connect 69 0 3 0;
#X connect 70 0 3 0;
#X connect 71 0 3 0;
#X connect 72 0 3 0;
#X connect 73 0 68 0;
#X connect 74 0 67 0;
#X connect 75 0 66 0;
#X connect 76 0 65 0;
#X connect 77 0 1 0;
#X connect 77 0 73 0;
#X connect 78 0 5 0;
#X connect 78 0 74 0;
#X connect 79 0 7 0;
#X connect 79 0 75 0;
#X connect 80 0 17 0;
#X connect 80 0 76 0;
#X connect 82 0 4 0;
#X connect 83 0 33 1;
#X connect 84 0 83 0;
#X connect 85 0 32 1;
#X connect 86 0 85 0;
#X connect 87 0 31 1;
#X connect 88 0 87 0;
#X connect 89 0 30 1;
#X connect 90 0 89 0;
#X connect 91 0 4 0;
#X connect 92 0 53 0;
#X connect 93 0 94 0;
#X connect 94 0 58 1;
#X connect 95 0 52 0;
