#N canvas 17 8 1343 696 12;
#X obj 212 -342 loadbang;
#X obj -24 -81 mtof;
#X obj -22 194 *~;
#X obj 676 428 *~;
#X obj 829 409 line~;
#X obj 124 -80 mtof;
#X obj 124 195 *~;
#X obj 270 -80 mtof;
#X obj 270 195 *~;
#X obj 651 828 dac~;
#X msg 151 -271 bang;
#X obj 270 -53 phasor~;
#X obj 271 -24 -~ 0.5;
#X obj 124 -51 phasor~;
#X obj 125 -22 -~ 0.5;
#X obj -24 -51 phasor~;
#X obj -23 -22 -~ 0.5;
#X obj 414 -81 mtof;
#X obj 414 194 *~;
#X obj 414 -54 phasor~;
#X obj 415 -25 -~ 0.5;
#X obj -23 36 lop~ 10;
#X obj 125 36 lop~ 10;
#X obj 270 40 lop~ 10;
#X obj 414 39 lop~ 10;
#X msg 290 -271 bang;
#X obj -23 6 *~ 2;
#X obj 125 6 *~ 2;
#X obj 271 4 *~ 2;
#X obj 415 3 *~ 2;
#X obj -22 355 *~;
#X obj 124 356 *~;
#X obj 270 356 *~;
#X obj 414 355 *~;
#X obj 289 111 receive pjstween3;
#X obj 432 85 receive pjstween4;
#X obj 142 86 receive pjstween2;
#X obj -4 64 receive pjstween1;
#X obj -4 218 receive pjsvol1;
#X obj 142 240 receive pjsvol2;
#X obj 288 263 receive pjsvol3;
#X obj 432 239 receive pjsvol4;
#X obj 959 383 receive pjsquit;
#X obj -4 162 line~;
#X obj 142 164 line~;
#X obj 289 167 line~;
#X obj 432 170 line~;
#X msg 142 136 \$1 50;
#X msg 289 139 \$1 50;
#X msg 432 142 \$1 50;
#X msg -4 134 \$1 50;
#X msg 894 409 0.5 500;
#X text -24 -139 Pads;
#X msg 290 -246 50;
#X obj 476 -53 osc~ 0.5;
#X obj 328 -53 osc~ 0.5;
#X obj 187 -50 osc~ 0.5;
#X obj 39 -50 osc~ 0.5;
#X obj 476 -76 mtof;
#X obj 328 -78 mtof;
#X obj 187 -75 mtof;
#X obj 39 -75 mtof;
#X obj -23 384 *~ 0.15;
#X obj 125 384 *~ 0.15;
#X obj 271 384 *~ 0.15;
#X obj 415 383 *~ 0.15;
#X obj 39 -100 - 12;
#X obj 187 -100 - 12;
#X obj 328 -103 - 12;
#X obj 476 -101 - 12;
#X msg 611 236 bang;
#X obj 941 540 delread~ \$0-A 100;
#X obj 971 560 delread~ \$0-B 161.8;
#X obj 1001 580 delread~ \$0-C 261.8;
#X obj 1031 600 delread~ \$0-D 61.8;
#X obj 887 594 +~;
#X obj 929 594 +~;
#X obj 872 644 +~;
#X obj 976 645 +~;
#X obj 914 644 -~;
#X obj 1016 644 -~;
#X obj 871 700 +~;
#X obj 915 701 +~;
#X obj 959 702 -~;
#X obj 998 702 -~;
#X obj 958 784 *~ 0;
#X obj 916 783 *~ 0;
#X obj 871 782 *~ 0;
#X obj 999 785 *~ 0;
#X obj 998 805 delwrite~ \$0-D 1000;
#X obj 959 828 delwrite~ \$0-C 1000;
#X obj 917 851 delwrite~ \$0-B 1000;
#X obj 872 873 delwrite~ \$0-A 1000;
#X obj 1096 748 / 200;
#X obj 941 519 * 1;
#X obj 971 519 * 1.618;
#X obj 1031 519 * 2.618;
#X obj 1091 519 / 1.618;
#X obj 951 479 f;
#X obj 1096 670 f;
#X msg 951 447 50;
#X msg 1096 637 70;
#X msg -24 -105 68;
#X msg 124 -104 71;
#X msg 270 -104 75;
#X msg 414 -105 78;
#X obj 205 863 *~;
#X obj 126 832 phasor~;
#X obj 205 835 phasor~;
#X obj 275 834 phasor~;
#X obj 204 887 osc~;
#X obj 204 909 *~ 0.08;
#X obj 219 753 line~;
#X obj 125 786 *~;
#X obj 205 784 *~;
#X obj 275 784 *~;
#X obj 276 809 +~;
#X obj 206 810 +~;
#X obj 126 809 +~;
#X text 240 867 ajf2005;
#X obj 141 547 random 250;
#X obj 141 616 random 250;
#X obj 140 681 random 250;
#X obj 293 534 random 250;
#X obj 291 601 random 250;
#X obj 291 668 random 250;
#X obj 267 940 *~;
#X obj 342 828 t b b;
#X obj 342 854 delay 10;
#X obj 342 906 line~;
#X msg 90 530 bang;
#X msg 411 517 bang;
#X msg 141 569 \$1 100;
#X msg 141 637 \$1 100;
#X msg 140 701 \$1 100;
#X msg 292 555 \$1 100;
#X msg 291 688 \$1 100;
#X msg 385 879 1 0;
#X obj 227 422 r pjstouched;
#X obj 935 -73 trigger bang;
#X obj 935 42 line~;
#X obj 935 -41 trigger bang bang;
#X msg 1051 -16 1 1;
#X obj 935 -15 delay 1;
#X obj 937 217 *~ 0.5;
#X obj 936 189 *~;
#X obj 953 97 noise~;
#X msg 935 14 0 10;
#X obj 953 124 lop~ 2000;
#X obj 953 152 hip~ 1000;
#X obj 925 -162 receive pjstick;
#X text 941 -102 tick;
#X obj 141 591 line~;
#X obj 141 659 line~;
#X obj 140 720 line~;
#X obj 292 577 line~;
#X msg 291 622 \$1 100;
#X obj 291 644 line~;
#X obj 291 709 line~;
#X obj 229 467 random 24;
#X obj 230 491 + 60;
#X obj 231 515 mtof;
#X msg 219 731 \$1 50;
#X msg 342 879 0 100;
#X msg 168 452 bang;
#X msg 959 409 0 50;
#X obj 442 321 line~;
#X msg 442 293 \$1 5;
#X obj 298 326 line~;
#X msg 298 298 \$1 5;
#X obj 152 326 line~;
#X msg 152 298 \$1 5;
#X obj 6 323 line~;
#X msg 6 295 \$1 5;
#X connect 0 0 10 0;
#X connect 0 0 25 0;
#X connect 0 0 70 0;
#X connect 1 0 15 0;
#X connect 2 0 30 0;
#X connect 3 0 75 0;
#X connect 3 0 76 0;
#X connect 4 0 3 1;
#X connect 5 0 13 0;
#X connect 6 0 31 0;
#X connect 7 0 11 0;
#X connect 8 0 32 0;
#X connect 10 0 104 0;
#X connect 10 0 103 0;
#X connect 10 0 102 0;
#X connect 10 0 105 0;
#X connect 11 0 12 0;
#X connect 12 0 28 0;
#X connect 13 0 14 0;
#X connect 14 0 27 0;
#X connect 15 0 16 0;
#X connect 16 0 26 0;
#X connect 17 0 19 0;
#X connect 18 0 33 0;
#X connect 19 0 20 0;
#X connect 20 0 29 0;
#X connect 21 0 2 0;
#X connect 22 0 6 0;
#X connect 23 0 8 0;
#X connect 24 0 18 0;
#X connect 25 0 53 0;
#X connect 25 0 51 0;
#X connect 26 0 21 0;
#X connect 27 0 22 0;
#X connect 28 0 23 0;
#X connect 29 0 24 0;
#X connect 30 0 62 0;
#X connect 31 0 63 0;
#X connect 32 0 64 0;
#X connect 33 0 65 0;
#X connect 34 0 48 0;
#X connect 35 0 49 0;
#X connect 36 0 47 0;
#X connect 37 0 50 0;
#X connect 38 0 173 0;
#X connect 39 0 171 0;
#X connect 40 0 169 0;
#X connect 41 0 167 0;
#X connect 42 0 165 0;
#X connect 43 0 2 1;
#X connect 44 0 6 1;
#X connect 45 0 8 1;
#X connect 46 0 18 1;
#X connect 47 0 44 0;
#X connect 48 0 45 0;
#X connect 49 0 46 0;
#X connect 50 0 43 0;
#X connect 51 0 4 0;
#X connect 53 0 24 1;
#X connect 53 0 23 1;
#X connect 53 0 22 1;
#X connect 53 0 21 1;
#X connect 54 0 18 0;
#X connect 55 0 8 0;
#X connect 56 0 6 0;
#X connect 57 0 2 0;
#X connect 58 0 54 0;
#X connect 59 0 55 0;
#X connect 60 0 56 0;
#X connect 61 0 57 0;
#X connect 62 0 3 0;
#X connect 63 0 3 0;
#X connect 64 0 3 0;
#X connect 65 0 3 0;
#X connect 66 0 61 0;
#X connect 67 0 60 0;
#X connect 68 0 59 0;
#X connect 69 0 58 0;
#X connect 70 0 100 0;
#X connect 70 0 101 0;
#X connect 71 0 75 1;
#X connect 72 0 76 1;
#X connect 73 0 80 0;
#X connect 73 0 78 0;
#X connect 74 0 80 1;
#X connect 74 0 78 1;
#X connect 75 0 77 0;
#X connect 75 0 79 0;
#X connect 75 0 9 0;
#X connect 76 0 77 1;
#X connect 76 0 79 1;
#X connect 76 0 9 1;
#X connect 77 0 81 0;
#X connect 77 0 83 0;
#X connect 78 0 83 1;
#X connect 78 0 81 1;
#X connect 79 0 82 0;
#X connect 79 0 84 0;
#X connect 80 0 82 1;
#X connect 80 0 84 1;
#X connect 81 0 87 0;
#X connect 82 0 86 0;
#X connect 83 0 85 0;
#X connect 84 0 88 0;
#X connect 85 0 90 0;
#X connect 86 0 91 0;
#X connect 87 0 92 0;
#X connect 88 0 89 0;
#X connect 93 0 88 1;
#X connect 93 0 85 1;
#X connect 93 0 86 1;
#X connect 93 0 87 1;
#X connect 94 0 71 0;
#X connect 95 0 72 0;
#X connect 96 0 73 0;
#X connect 97 0 74 0;
#X connect 98 0 94 0;
#X connect 98 0 95 0;
#X connect 98 0 96 0;
#X connect 98 0 97 0;
#X connect 99 0 93 0;
#X connect 100 0 98 0;
#X connect 101 0 99 0;
#X connect 102 0 1 0;
#X connect 102 0 66 0;
#X connect 103 0 5 0;
#X connect 103 0 67 0;
#X connect 104 0 7 0;
#X connect 104 0 68 0;
#X connect 105 0 17 0;
#X connect 105 0 69 0;
#X connect 106 0 110 0;
#X connect 107 0 106 0;
#X connect 108 0 106 0;
#X connect 109 0 106 0;
#X connect 110 0 111 0;
#X connect 111 0 126 0;
#X connect 112 0 106 1;
#X connect 112 0 113 0;
#X connect 112 0 114 0;
#X connect 112 0 115 0;
#X connect 113 0 118 0;
#X connect 114 0 117 0;
#X connect 115 0 116 0;
#X connect 116 0 109 0;
#X connect 117 0 108 0;
#X connect 118 0 107 0;
#X connect 120 0 132 0;
#X connect 121 0 133 0;
#X connect 122 0 134 0;
#X connect 123 0 135 0;
#X connect 124 0 156 0;
#X connect 125 0 136 0;
#X connect 126 0 3 0;
#X connect 127 0 128 0;
#X connect 127 1 137 0;
#X connect 128 0 163 0;
#X connect 129 0 126 1;
#X connect 130 0 120 0;
#X connect 130 0 121 0;
#X connect 130 0 122 0;
#X connect 131 0 123 0;
#X connect 131 0 124 0;
#X connect 131 0 125 0;
#X connect 132 0 152 0;
#X connect 133 0 153 0;
#X connect 134 0 154 0;
#X connect 135 0 155 0;
#X connect 136 0 158 0;
#X connect 137 0 129 0;
#X connect 138 0 164 0;
#X connect 139 0 141 0;
#X connect 140 0 145 0;
#X connect 141 0 143 0;
#X connect 141 1 142 0;
#X connect 142 0 140 0;
#X connect 143 0 147 0;
#X connect 144 0 3 0;
#X connect 145 0 144 0;
#X connect 146 0 148 0;
#X connect 147 0 140 0;
#X connect 148 0 149 0;
#X connect 149 0 145 1;
#X connect 150 0 139 0;
#X connect 152 0 115 1;
#X connect 153 0 114 1;
#X connect 154 0 113 1;
#X connect 155 0 118 1;
#X connect 156 0 157 0;
#X connect 157 0 117 1;
#X connect 158 0 116 1;
#X connect 159 0 160 0;
#X connect 160 0 161 0;
#X connect 161 0 162 0;
#X connect 161 0 131 0;
#X connect 161 0 130 0;
#X connect 162 0 112 0;
#X connect 163 0 129 0;
#X connect 164 0 159 0;
#X connect 164 0 127 0;
#X connect 165 0 4 0;
#X connect 166 0 33 1;
#X connect 167 0 166 0;
#X connect 168 0 32 1;
#X connect 169 0 168 0;
#X connect 170 0 31 1;
#X connect 171 0 170 0;
#X connect 172 0 30 1;
#X connect 173 0 172 0;
