#N canvas 102 28 1160 626 10;
#X obj 57 171 *~;
#X obj 149 125 * 1;
#X obj 57 3 r note1;
#X obj 57 199 *~ 0.05;
#X obj 57 32 t b b f;
#X obj 80 114 line~;
#X obj 80 141 *~;
#X obj 304 199 *~;
#X obj 396 153 * 1;
#X obj 304 227 *~ 0.05;
#X obj 304 60 t b b f;
#X obj 555 203 *~;
#X obj 647 157 * 1;
#X obj 555 231 *~ 0.05;
#X obj 555 64 t b b f;
#X obj 802 231 *~;
#X obj 894 185 * 1;
#X obj 778 267 *~ 0.05;
#X obj 802 92 t b b f;
#X obj 304 31 r note2;
#X obj 555 35 r note3;
#X obj 802 63 r note4;
#X obj 67 421 *~;
#X obj 159 375 * 1;
#X obj 67 449 *~ 0.05;
#X obj 67 282 t b b f;
#X obj 314 449 *~;
#X obj 406 403 * 1;
#X obj 314 477 *~ 0.05;
#X obj 314 310 t b b f;
#X obj 565 453 *~;
#X obj 656 392 * 1;
#X obj 565 481 *~ 0.05;
#X obj 812 481 *~;
#X obj 405 611 dac~;
#X obj 904 435 * 1;
#X obj 812 509 *~ 0.05;
#X obj 812 342 t b b f;
#X obj 67 253 r note5;
#X obj 314 281 r note6;
#X obj 565 285 r note7;
#X obj 812 313 r note8;
#X obj 148 148 phasor~ 440;
#X obj 395 175 phasor~ 440;
#X obj 646 180 phasor~ 440;
#X obj 893 208 phasor~ 440;
#X obj 158 398 phasor~ 440;
#X obj 405 426 phasor~ 440;
#X obj 903 458 phasor~ 440;
#X msg 80 91 1 5;
#X obj 6 68 delay 5;
#X obj 326 136 line~;
#X obj 326 163 *~;
#X msg 326 113 1 5;
#X obj 252 90 delay 5;
#X obj 564 137 line~;
#X obj 564 164 *~;
#X msg 564 114 1 5;
#X obj 490 91 delay 5;
#X obj 824 165 line~;
#X obj 824 192 *~;
#X msg 824 142 1 5;
#X obj 750 119 delay 5;
#X obj 833 417 line~;
#X obj 833 444 *~;
#X msg 833 394 1 5;
#X obj 759 371 delay 5;
#X obj 578 390 line~;
#X obj 578 417 *~;
#X msg 578 367 1 5;
#X obj 504 344 delay 5;
#X obj 337 375 line~;
#X obj 337 402 *~;
#X msg 337 352 1 5;
#X obj 263 329 delay 5;
#X obj 84 354 line~;
#X obj 84 381 *~;
#X msg 84 331 1 5;
#X obj 10 308 delay 5;
#X msg 252 113 0 5;
#X msg 490 114 0 5;
#X msg 750 142 0 5;
#X msg 759 394 0 5;
#X msg 263 352 0 5;
#X msg 10 331 0 5;
#X msg 6 91 0 5;
#X msg 504 367 0 25;
#X obj 565 314 t b b f;
#X obj 656 430 phasor~ 440;
#X connect 0 0 3 0;
#X connect 1 0 42 0;
#X connect 2 0 4 0;
#X connect 3 0 34 0;
#X connect 3 0 34 1;
#X connect 4 0 50 0;
#X connect 4 1 49 0;
#X connect 4 2 1 0;
#X connect 5 0 6 1;
#X connect 5 0 6 0;
#X connect 6 0 0 0;
#X connect 7 0 9 0;
#X connect 8 0 43 0;
#X connect 9 0 34 0;
#X connect 9 0 34 1;
#X connect 10 0 54 0;
#X connect 10 1 53 0;
#X connect 10 2 8 0;
#X connect 11 0 13 0;
#X connect 12 0 44 0;
#X connect 13 0 34 0;
#X connect 13 0 34 1;
#X connect 14 0 58 0;
#X connect 14 1 57 0;
#X connect 14 2 12 0;
#X connect 15 0 17 0;
#X connect 16 0 45 0;
#X connect 17 0 34 1;
#X connect 17 0 34 0;
#X connect 18 0 62 0;
#X connect 18 1 61 0;
#X connect 18 2 16 0;
#X connect 19 0 10 0;
#X connect 20 0 14 0;
#X connect 21 0 18 0;
#X connect 22 0 24 0;
#X connect 23 0 46 0;
#X connect 24 0 34 0;
#X connect 24 0 34 1;
#X connect 25 0 78 0;
#X connect 25 1 77 0;
#X connect 25 2 23 0;
#X connect 26 0 28 0;
#X connect 27 0 47 0;
#X connect 28 0 34 0;
#X connect 28 0 34 1;
#X connect 29 0 74 0;
#X connect 29 1 73 0;
#X connect 29 2 27 0;
#X connect 30 0 32 0;
#X connect 31 0 88 0;
#X connect 32 0 34 0;
#X connect 32 0 34 1;
#X connect 33 0 36 0;
#X connect 35 0 48 0;
#X connect 36 0 34 0;
#X connect 36 0 34 1;
#X connect 37 0 66 0;
#X connect 37 1 65 0;
#X connect 37 2 35 0;
#X connect 38 0 25 0;
#X connect 39 0 29 0;
#X connect 41 0 37 0;
#X connect 42 0 0 1;
#X connect 43 0 7 1;
#X connect 44 0 11 1;
#X connect 45 0 15 1;
#X connect 46 0 22 1;
#X connect 47 0 26 1;
#X connect 48 0 33 1;
#X connect 49 0 5 0;
#X connect 50 0 85 0;
#X connect 51 0 52 1;
#X connect 51 0 52 0;
#X connect 52 0 7 0;
#X connect 53 0 51 0;
#X connect 54 0 79 0;
#X connect 55 0 56 1;
#X connect 55 0 56 0;
#X connect 56 0 11 0;
#X connect 57 0 55 0;
#X connect 58 0 80 0;
#X connect 59 0 60 1;
#X connect 59 0 60 0;
#X connect 60 0 15 0;
#X connect 61 0 59 0;
#X connect 62 0 81 0;
#X connect 63 0 64 1;
#X connect 63 0 64 0;
#X connect 64 0 33 0;
#X connect 65 0 63 0;
#X connect 66 0 82 0;
#X connect 67 0 68 1;
#X connect 67 0 68 0;
#X connect 68 0 30 0;
#X connect 69 0 67 0;
#X connect 70 0 86 0;
#X connect 71 0 72 1;
#X connect 71 0 72 0;
#X connect 72 0 26 0;
#X connect 73 0 71 0;
#X connect 74 0 83 0;
#X connect 75 0 76 1;
#X connect 75 0 76 0;
#X connect 76 0 22 0;
#X connect 77 0 75 0;
#X connect 78 0 84 0;
#X connect 79 0 51 0;
#X connect 80 0 55 0;
#X connect 81 0 59 0;
#X connect 82 0 63 0;
#X connect 83 0 71 0;
#X connect 84 0 75 0;
#X connect 85 0 5 0;
#X connect 86 0 67 0;
#X connect 87 0 70 0;
#X connect 87 1 69 0;
#X connect 87 2 31 0;
#X connect 88 0 30 1;
