#N canvas 112 80 1160 491 10;
#X obj 586 362 dac~;
#X obj 58 111 line~;
#X obj 58 178 *~;
#X obj 105 144 osc~ 440;
#X obj 106 121 * 1;
#X obj 106 64 mtof;
#X obj 1067 210 *~ 0.1;
#X obj 58 206 *~ 0.4;
#X obj 225 213 *~ 0.35;
#X obj 374 210 *~ 0.3;
#X obj 535 212 *~ 0.25;
#X obj 672 205 *~ 0.2;
#X obj 807 205 *~ 0.15;
#X obj 933 209 *~ 0.1;
#X msg 23 84 0 1000;
#X obj 671 -38 r note5;
#X obj 58 -41 r note1;
#X obj 225 -34 r note2;
#X obj 374 -37 r note3;
#X obj 535 -35 r note4;
#X obj 807 -42 r note6;
#X obj 934 -38 r note7;
#X obj 1067 -37 r note8;
#X obj 58 35 t b b f;
#X msg 77 84 1 5;
#X obj 23 62 delay 5;
#X obj 225 103 line~;
#X obj 225 170 *~;
#X obj 272 136 osc~ 440;
#X obj 273 113 * 1;
#X obj 273 56 mtof;
#X msg 190 76 0 1000;
#X obj 225 27 t b b f;
#X msg 244 76 1 5;
#X obj 190 54 delay 5;
#X obj 374 105 line~;
#X obj 374 172 *~;
#X obj 421 138 osc~ 440;
#X obj 422 115 * 1;
#X obj 422 58 mtof;
#X msg 339 78 0 1000;
#X obj 374 29 t b b f;
#X msg 393 78 1 5;
#X obj 339 56 delay 5;
#X obj 535 111 line~;
#X obj 535 178 *~;
#X obj 582 144 osc~ 440;
#X obj 583 121 * 1;
#X obj 583 64 mtof;
#X msg 500 84 0 1000;
#X obj 535 35 t b b f;
#X msg 554 84 1 5;
#X obj 500 62 delay 5;
#X obj 671 106 line~;
#X obj 671 173 *~;
#X obj 718 139 osc~ 440;
#X obj 719 116 * 1;
#X obj 719 59 mtof;
#X msg 636 79 0 1000;
#X obj 671 30 t b b f;
#X msg 690 79 1 5;
#X obj 636 57 delay 5;
#X obj 807 95 line~;
#X obj 807 162 *~;
#X obj 854 128 osc~ 440;
#X obj 855 105 * 1;
#X obj 855 48 mtof;
#X msg 772 68 0 1000;
#X obj 807 19 t b b f;
#X msg 826 68 1 5;
#X obj 772 46 delay 5;
#X obj 934 93 line~;
#X obj 934 160 *~;
#X obj 981 126 osc~ 440;
#X obj 982 103 * 1;
#X obj 982 46 mtof;
#X msg 899 66 0 1000;
#X obj 934 17 t b b f;
#X msg 953 66 1 5;
#X obj 899 44 delay 5;
#X obj 1067 93 line~;
#X obj 1067 160 *~;
#X obj 1114 126 osc~ 440;
#X obj 1115 103 * 1;
#X obj 1115 46 mtof;
#X msg 1032 66 0 1000;
#X obj 1067 17 t b b f;
#X msg 1086 66 1 5;
#X obj 1032 44 delay 5;
#X connect 1 0 2 0;
#X connect 2 0 7 0;
#X connect 3 0 2 1;
#X connect 4 0 3 0;
#X connect 5 0 4 0;
#X connect 6 0 0 1;
#X connect 6 0 0 0;
#X connect 7 0 0 0;
#X connect 7 0 0 1;
#X connect 8 0 0 0;
#X connect 8 0 0 1;
#X connect 9 0 0 0;
#X connect 9 0 0 1;
#X connect 10 0 0 0;
#X connect 10 0 0 1;
#X connect 11 0 0 0;
#X connect 11 0 0 1;
#X connect 12 0 0 0;
#X connect 12 0 0 1;
#X connect 13 0 0 0;
#X connect 13 0 0 1;
#X connect 14 0 1 0;
#X connect 15 0 59 0;
#X connect 16 0 23 0;
#X connect 17 0 32 0;
#X connect 18 0 41 0;
#X connect 19 0 50 0;
#X connect 20 0 68 0;
#X connect 21 0 77 0;
#X connect 22 0 86 0;
#X connect 23 0 25 0;
#X connect 23 1 24 0;
#X connect 23 2 5 0;
#X connect 24 0 1 0;
#X connect 25 0 14 0;
#X connect 26 0 27 0;
#X connect 27 0 8 0;
#X connect 28 0 27 1;
#X connect 29 0 28 0;
#X connect 30 0 29 0;
#X connect 31 0 26 0;
#X connect 32 0 34 0;
#X connect 32 1 33 0;
#X connect 32 2 30 0;
#X connect 33 0 26 0;
#X connect 34 0 31 0;
#X connect 35 0 36 0;
#X connect 36 0 9 0;
#X connect 37 0 36 1;
#X connect 38 0 37 0;
#X connect 39 0 38 0;
#X connect 40 0 35 0;
#X connect 41 0 43 0;
#X connect 41 1 42 0;
#X connect 41 2 39 0;
#X connect 42 0 35 0;
#X connect 43 0 40 0;
#X connect 44 0 45 0;
#X connect 45 0 10 0;
#X connect 46 0 45 1;
#X connect 47 0 46 0;
#X connect 48 0 47 0;
#X connect 49 0 44 0;
#X connect 50 0 52 0;
#X connect 50 1 51 0;
#X connect 50 2 48 0;
#X connect 51 0 44 0;
#X connect 52 0 49 0;
#X connect 53 0 54 0;
#X connect 54 0 11 0;
#X connect 55 0 54 1;
#X connect 56 0 55 0;
#X connect 57 0 56 0;
#X connect 58 0 53 0;
#X connect 59 0 61 0;
#X connect 59 1 60 0;
#X connect 59 2 57 0;
#X connect 60 0 53 0;
#X connect 61 0 58 0;
#X connect 62 0 63 0;
#X connect 63 0 12 0;
#X connect 64 0 63 1;
#X connect 65 0 64 0;
#X connect 66 0 65 0;
#X connect 67 0 62 0;
#X connect 68 0 70 0;
#X connect 68 1 69 0;
#X connect 68 2 66 0;
#X connect 69 0 62 0;
#X connect 70 0 67 0;
#X connect 71 0 72 0;
#X connect 72 0 13 0;
#X connect 73 0 72 1;
#X connect 74 0 73 0;
#X connect 75 0 74 0;
#X connect 76 0 71 0;
#X connect 77 0 79 0;
#X connect 77 1 78 0;
#X connect 77 2 75 0;
#X connect 78 0 71 0;
#X connect 79 0 76 0;
#X connect 80 0 81 0;
#X connect 81 0 6 0;
#X connect 82 0 81 1;
#X connect 83 0 82 0;
#X connect 84 0 83 0;
#X connect 85 0 80 0;
#X connect 86 0 88 0;
#X connect 86 1 87 0;
#X connect 86 2 84 0;
#X connect 87 0 80 0;
#X connect 88 0 85 0;
