#N canvas 114 1 1160 574 10;
#X obj 57 104 line~;
#X obj 57 171 *~;
#X obj 57 131 *~;
#X obj 299 639 dac~;
#X obj 96 148 osc~ 440;
#X obj 97 125 * 1;
#X obj 57 -6 r note1;
#X obj 57 199 *~ 0.05;
#X msg 26 67 0 20000;
#X obj 57 23 t b b f;
#X msg 82 67 0.5 1;
#X obj 25 47 delay 1;
#X obj 177 99 line~;
#X obj 177 166 *~;
#X obj 177 126 *~;
#X obj 216 143 osc~ 440;
#X obj 217 120 * 1;
#X obj 177 194 *~ 0.05;
#X msg 146 62 0 20000;
#X obj 177 18 t b b f;
#X msg 202 62 0.5 1;
#X obj 145 42 delay 1;
#X obj 291 100 line~;
#X obj 291 167 *~;
#X obj 291 127 *~;
#X obj 330 144 osc~ 440;
#X obj 331 121 * 1;
#X obj 291 195 *~ 0.05;
#X msg 260 63 0 20000;
#X obj 291 19 t b b f;
#X msg 316 63 0.5 1;
#X obj 259 43 delay 1;
#X obj 430 107 line~;
#X obj 430 174 *~;
#X obj 430 134 *~;
#X obj 469 151 osc~ 440;
#X obj 470 128 * 1;
#X obj 430 202 *~ 0.05;
#X msg 399 70 0 20000;
#X obj 430 26 t b b f;
#X msg 455 70 0.5 1;
#X obj 398 50 delay 1;
#X obj 550 102 line~;
#X obj 550 169 *~;
#X obj 550 129 *~;
#X obj 589 146 osc~ 440;
#X obj 590 123 * 1;
#X obj 553 204 *~ 0.05;
#X msg 519 65 0 20000;
#X obj 550 21 t b b f;
#X msg 575 65 0.5 1;
#X obj 518 45 delay 1;
#X obj 664 103 line~;
#X obj 664 170 *~;
#X obj 664 130 *~;
#X obj 703 147 osc~ 440;
#X obj 704 124 * 1;
#X obj 665 191 *~ 0.05;
#X msg 633 66 0 20000;
#X obj 664 22 t b b f;
#X msg 689 66 0.5 1;
#X obj 632 46 delay 1;
#X obj 177 -11 r note2;
#X obj 291 -10 r note3;
#X obj 430 -3 r note4;
#X obj 550 -8 r note5;
#X obj 664 -7 r note6;
#X obj 57 392 line~;
#X obj 57 459 *~;
#X obj 57 419 *~;
#X obj 96 436 osc~ 440;
#X obj 97 413 * 1;
#X obj 57 487 *~ 0.05;
#X msg 26 355 0 20000;
#X obj 57 311 t b b f;
#X msg 82 355 0.5 1;
#X obj 25 335 delay 1;
#X obj 177 387 line~;
#X obj 177 454 *~;
#X obj 177 414 *~;
#X obj 216 431 osc~ 440;
#X obj 217 408 * 1;
#X obj 177 482 *~ 0.05;
#X msg 146 350 0 20000;
#X obj 177 306 t b b f;
#X msg 202 350 0.5 1;
#X obj 145 330 delay 1;
#X obj 291 388 line~;
#X obj 291 455 *~;
#X obj 291 415 *~;
#X obj 330 432 osc~ 440;
#X obj 331 409 * 1;
#X obj 291 483 *~ 0.05;
#X msg 260 351 0 20000;
#X obj 291 307 t b b f;
#X msg 316 351 0.5 1;
#X obj 259 331 delay 1;
#X obj 430 395 line~;
#X obj 430 462 *~;
#X obj 430 422 *~;
#X obj 469 439 osc~ 440;
#X obj 470 416 * 1;
#X obj 430 490 *~ 0.05;
#X msg 399 358 0 20000;
#X obj 430 314 t b b f;
#X msg 455 358 0.5 1;
#X obj 398 338 delay 1;
#X obj 550 390 line~;
#X obj 550 457 *~;
#X obj 550 417 *~;
#X obj 589 434 osc~ 440;
#X obj 590 411 * 1;
#X obj 550 485 *~ 0.05;
#X msg 519 353 0 20000;
#X obj 550 309 t b b f;
#X msg 575 353 0.5 1;
#X obj 518 333 delay 1;
#X obj 664 391 line~;
#X obj 664 458 *~;
#X obj 664 418 *~;
#X obj 703 435 osc~ 440;
#X obj 704 412 * 1;
#X obj 664 486 *~ 0.05;
#X msg 633 354 0 20000;
#X obj 664 310 t b b f;
#X msg 689 354 0.5 1;
#X obj 632 334 delay 1;
#X obj 57 282 r note7;
#X obj 177 277 r note8;
#X obj 291 278 r note9;
#X obj 430 285 r note10;
#X obj 550 280 r note11;
#X obj 664 281 r note12;
#X connect 0 0 2 1;
#X connect 0 0 2 0;
#X connect 1 0 7 0;
#X connect 2 0 1 0;
#X connect 4 0 1 1;
#X connect 5 0 4 0;
#X connect 6 0 9 0;
#X connect 7 0 3 0;
#X connect 7 0 3 1;
#X connect 8 0 0 0;
#X connect 9 0 11 0;
#X connect 9 1 10 0;
#X connect 9 2 5 0;
#X connect 10 0 0 0;
#X connect 11 0 8 0;
#X connect 12 0 14 1;
#X connect 12 0 14 0;
#X connect 13 0 17 0;
#X connect 14 0 13 0;
#X connect 15 0 13 1;
#X connect 16 0 15 0;
#X connect 17 0 3 0;
#X connect 17 0 3 1;
#X connect 18 0 12 0;
#X connect 19 0 21 0;
#X connect 19 1 20 0;
#X connect 19 2 16 0;
#X connect 20 0 12 0;
#X connect 21 0 18 0;
#X connect 22 0 24 1;
#X connect 22 0 24 0;
#X connect 23 0 27 0;
#X connect 24 0 23 0;
#X connect 25 0 23 1;
#X connect 26 0 25 0;
#X connect 27 0 3 0;
#X connect 27 0 3 1;
#X connect 28 0 22 0;
#X connect 29 0 31 0;
#X connect 29 1 30 0;
#X connect 29 2 26 0;
#X connect 30 0 22 0;
#X connect 31 0 28 0;
#X connect 32 0 34 1;
#X connect 32 0 34 0;
#X connect 33 0 37 0;
#X connect 34 0 33 0;
#X connect 35 0 33 1;
#X connect 36 0 35 0;
#X connect 37 0 3 0;
#X connect 37 0 3 1;
#X connect 38 0 32 0;
#X connect 39 0 41 0;
#X connect 39 1 40 0;
#X connect 39 2 36 0;
#X connect 40 0 32 0;
#X connect 41 0 38 0;
#X connect 42 0 44 1;
#X connect 42 0 44 0;
#X connect 43 0 47 0;
#X connect 44 0 43 0;
#X connect 45 0 43 1;
#X connect 46 0 45 0;
#X connect 47 0 3 0;
#X connect 47 0 3 1;
#X connect 48 0 42 0;
#X connect 49 0 51 0;
#X connect 49 1 50 0;
#X connect 49 2 46 0;
#X connect 50 0 42 0;
#X connect 51 0 48 0;
#X connect 52 0 54 1;
#X connect 52 0 54 0;
#X connect 53 0 57 0;
#X connect 54 0 53 0;
#X connect 55 0 53 1;
#X connect 56 0 55 0;
#X connect 57 0 3 0;
#X connect 57 0 3 1;
#X connect 58 0 52 0;
#X connect 59 0 61 0;
#X connect 59 1 60 0;
#X connect 59 2 56 0;
#X connect 60 0 52 0;
#X connect 61 0 58 0;
#X connect 62 0 19 0;
#X connect 63 0 29 0;
#X connect 64 0 39 0;
#X connect 65 0 49 0;
#X connect 66 0 59 0;
#X connect 67 0 69 1;
#X connect 67 0 69 0;
#X connect 68 0 72 0;
#X connect 69 0 68 0;
#X connect 70 0 68 1;
#X connect 71 0 70 0;
#X connect 72 0 3 0;
#X connect 72 0 3 1;
#X connect 73 0 67 0;
#X connect 74 0 76 0;
#X connect 74 1 75 0;
#X connect 74 2 71 0;
#X connect 75 0 67 0;
#X connect 76 0 73 0;
#X connect 77 0 79 1;
#X connect 77 0 79 0;
#X connect 78 0 82 0;
#X connect 79 0 78 0;
#X connect 80 0 78 1;
#X connect 81 0 80 0;
#X connect 82 0 3 0;
#X connect 82 0 3 1;
#X connect 83 0 77 0;
#X connect 84 0 86 0;
#X connect 84 1 85 0;
#X connect 84 2 81 0;
#X connect 85 0 77 0;
#X connect 86 0 83 0;
#X connect 87 0 89 1;
#X connect 87 0 89 0;
#X connect 88 0 92 0;
#X connect 89 0 88 0;
#X connect 90 0 88 1;
#X connect 91 0 90 0;
#X connect 92 0 3 0;
#X connect 92 0 3 1;
#X connect 93 0 87 0;
#X connect 94 0 96 0;
#X connect 94 1 95 0;
#X connect 94 2 91 0;
#X connect 95 0 87 0;
#X connect 96 0 93 0;
#X connect 97 0 99 1;
#X connect 97 0 99 0;
#X connect 98 0 102 0;
#X connect 99 0 98 0;
#X connect 100 0 98 1;
#X connect 101 0 100 0;
#X connect 102 0 3 0;
#X connect 102 0 3 1;
#X connect 103 0 97 0;
#X connect 104 0 106 0;
#X connect 104 1 105 0;
#X connect 104 2 101 0;
#X connect 105 0 97 0;
#X connect 106 0 103 0;
#X connect 107 0 109 1;
#X connect 107 0 109 0;
#X connect 108 0 112 0;
#X connect 109 0 108 0;
#X connect 110 0 108 1;
#X connect 111 0 110 0;
#X connect 112 0 3 0;
#X connect 112 0 3 1;
#X connect 113 0 107 0;
#X connect 114 0 116 0;
#X connect 114 1 115 0;
#X connect 114 2 111 0;
#X connect 115 0 107 0;
#X connect 116 0 113 0;
#X connect 117 0 119 1;
#X connect 117 0 119 0;
#X connect 118 0 122 0;
#X connect 119 0 118 0;
#X connect 120 0 118 1;
#X connect 121 0 120 0;
#X connect 122 0 3 0;
#X connect 122 0 3 1;
#X connect 123 0 117 0;
#X connect 124 0 126 0;
#X connect 124 1 125 0;
#X connect 124 2 121 0;
#X connect 125 0 117 0;
#X connect 126 0 123 0;
#X connect 127 0 74 0;
#X connect 128 0 84 0;
#X connect 129 0 94 0;
#X connect 130 0 104 0;
#X connect 131 0 114 0;
#X connect 132 0 124 0;
