#N canvas 340 102 623 686 10;
#X obj 327 635 dac~;
#X obj 132 376 +~;
#X obj 34 91 mtof;
#X obj 34 114 t f;
#X obj 132 432 *~;
#X obj 363 -34 r play_n;
#X obj 536 415 line~;
#X obj 117 -52 loadbang;
#X obj 34 70 f 60;
#N canvas 504 155 450 300 osc-voice 0;
#X obj 130 211 osc~;
#X obj 131 283 *~;
#X obj 208 191 f 0;
#X obj 206 171 t b;
#X obj 177 105 t b;
#X obj 177 164 f 1;
#X obj 177 242 line~;
#X obj 206 131 t b;
#X msg 177 219 \$1 10;
#X obj 205 150 delay 50;
#X obj 131 38 inlet freq;
#X obj 177 73 inlet play;
#X obj 132 310 outlet~;
#X connect 0 0 1 0;
#X connect 1 0 12 0;
#X connect 2 0 8 0;
#X connect 3 0 2 0;
#X connect 4 0 5 0;
#X connect 4 0 7 0;
#X connect 5 0 8 0;
#X connect 6 0 1 1;
#X connect 7 0 9 0;
#X connect 8 0 6 0;
#X connect 9 0 3 0;
#X connect 10 0 0 0;
#X connect 11 0 4 0;
#X restore 34 152 pd osc-voice;
#N canvas 65 92 450 300 phasor-voice 0;
#X obj 126 214 *~;
#X obj 126 99 phasor~;
#X obj 126 132 *~ 2;
#X obj 126 153 -~ 1;
#X obj 125 178 *~ 0.5;
#X obj 227 138 f 0;
#X obj 225 118 t b;
#X obj 196 52 t b;
#X obj 196 111 f 1;
#X obj 197 187 line~;
#X obj 225 78 t b;
#X msg 196 164 \$1 10;
#X obj 224 98 delay 50;
#X obj 126 241 outlet~;
#X obj 126 3 inlet freq;
#X obj 196 29 inlet play;
#X connect 0 0 13 0;
#X connect 1 0 2 0;
#X connect 2 0 3 0;
#X connect 3 0 4 0;
#X connect 4 0 0 0;
#X connect 5 0 11 0;
#X connect 6 0 5 0;
#X connect 7 0 8 0;
#X connect 7 0 10 0;
#X connect 8 0 11 0;
#X connect 9 0 0 1;
#X connect 10 0 12 0;
#X connect 11 0 9 0;
#X connect 12 0 6 0;
#X connect 14 0 1 0;
#X connect 15 0 7 0;
#X restore 72 177 pd phasor-voice;
#X msg 536 395 \$1 10;
#X obj 73 91 mtof;
#X obj 73 112 t f;
#N canvas 65 82 450 300 panner 0;
#X obj 69 194 *~;
#X obj 276 196 *~;
#X obj 83 138 -;
#X obj 83 118 f 1;
#X obj 178 69 trigger float float;
#X obj 178 92 trigger bang float;
#X obj 178 45 / 24;
#X obj 292 144 line~;
#X msg 301 115 \$1 5;
#X obj 83 163 line~;
#X obj 70 9 inlet~;
#X obj 178 23 inlet;
#X obj 73 234 outlet~;
#X obj 279 233 outlet~;
#X connect 0 0 12 0;
#X connect 1 0 13 0;
#X connect 2 0 9 0;
#X connect 3 0 2 0;
#X connect 4 0 5 0;
#X connect 4 1 8 0;
#X connect 5 0 3 0;
#X connect 5 1 2 1;
#X connect 6 0 4 0;
#X connect 7 0 1 1;
#X connect 8 0 7 0;
#X connect 9 0 0 1;
#X connect 10 0 0 0;
#X connect 10 0 1 0;
#X connect 11 0 6 0;
#X restore 132 491 pd panner;
#X obj 183 462 r panner;
#X obj 363 -14 t f f, f 30;
#N canvas 65 82 450 300 month-sound 0;
#X obj 97 192 *~;
#X obj 96 75 noise~;
#X obj 97 105 *~;
#X obj 97 155 clip~ -1 1;
#X obj 98 131 *~ 100;
#X obj 188 175 line~;
#X obj 209 92 delay 50;
#X obj 174 60 t b b;
#X obj 97 230 *~ 0.5;
#X msg 209 113 0 100;
#X msg 174 138 1 100, f 6;
#X obj 97 264 outlet~;
#X obj 174 31 inlet;
#X connect 0 0 8 0;
#X connect 1 0 2 0;
#X connect 1 0 2 1;
#X connect 2 0 4 0;
#X connect 3 0 0 0;
#X connect 4 0 3 0;
#X connect 5 0 0 1;
#X connect 6 0 9 0;
#X connect 7 0 10 0;
#X connect 7 1 6 0;
#X connect 8 0 11 0;
#X connect 9 0 5 0;
#X connect 10 0 5 0;
#X connect 12 0 7 0;
#X restore 452 491 pd month-sound;
#X obj 452 463 r month;
#X obj 348 463 r monday;
#N canvas 65 87 450 300 monday-sound 0;
#X obj 97 264 outlet~;
#X obj 166 184 line~;
#X obj 151 34 t b b b b, f 15;
#X msg 189 118 0 0;
#X msg 293 156 0 0;
#X msg 151 133 1 50, f 2;
#X obj 187 81 delay 50;
#X obj 229 110 delay 75;
#X msg 226 141 1 50;
#X obj 291 119 delay 125;
#X obj 102 200 *~;
#X obj 101 227 *~ 0.5;
#X obj 102 3 phasor~ 10000;
#X obj 134 -55 inlet;
#X connect 1 0 10 1;
#X connect 2 0 5 0;
#X connect 2 1 6 0;
#X connect 2 2 7 0;
#X connect 2 3 9 0;
#X connect 3 0 1 0;
#X connect 4 0 1 0;
#X connect 5 0 1 0;
#X connect 6 0 3 0;
#X connect 7 0 8 0;
#X connect 8 0 1 0;
#X connect 9 0 4 0;
#X connect 10 0 11 0;
#X connect 11 0 0 0;
#X connect 12 0 10 0;
#X connect 13 0 2 0;
#X connect 13 0 12 1;
#X restore 348 491 pd monday-sound;
#N canvas 65 97 450 300 day-sound 0;
#X obj 97 264 outlet~;
#X obj 117 114 line~;
#X obj 78 152 *~;
#X obj 116 13 t b b b b, f 15;
#X obj 152 37 delay 75;
#X msg 116 88 1 75, f 6;
#X obj 102 194 *~ 0.5;
#X obj 79 -18 osc~ 950;
#X obj 20 -3 osc~ 480;
#X obj 35 32 *~;
#X msg 152 61 0 10;
#X obj 83 -60 inlet;
#X connect 1 0 2 1;
#X connect 2 0 6 0;
#X connect 3 0 5 0;
#X connect 3 1 4 0;
#X connect 4 0 10 0;
#X connect 5 0 1 0;
#X connect 6 0 0 0;
#X connect 7 0 9 1;
#X connect 8 0 9 0;
#X connect 9 0 2 0;
#X connect 10 0 1 0;
#X connect 11 0 3 0;
#X connect 11 0 7 1;
#X connect 11 0 8 1;
#X restore 256 490 pd day-sound;
#X obj 256 462 r day;
#N canvas 495 170 450 300 osc-voice 0;
#X obj 111 102 osc~;
#X obj 131 283 *~;
#X obj 256 191 f 0;
#X obj 254 171 t b;
#X obj 225 105 t b;
#X obj 225 164 f 1;
#X obj 225 242 line~;
#X obj 254 131 t b;
#X msg 225 219 \$1 10;
#X obj 253 150 delay 50;
#X obj 131 38 inlet freq;
#X obj 225 73 inlet play;
#X obj 132 310 outlet~;
#X obj 131 157 *~ 1000;
#X obj 130 186 clip~ -1 1;
#X obj 144 125 osc~;
#X connect 0 0 13 0;
#X connect 1 0 12 0;
#X connect 2 0 8 0;
#X connect 3 0 2 0;
#X connect 4 0 5 0;
#X connect 4 0 7 0;
#X connect 5 0 8 0;
#X connect 6 0 1 1;
#X connect 7 0 9 0;
#X connect 8 0 6 0;
#X connect 9 0 3 0;
#X connect 10 0 0 0;
#X connect 10 0 15 0;
#X connect 11 0 4 0;
#X connect 13 0 14 0;
#X connect 14 0 1 0;
#X connect 15 0 14 0;
#X restore 109 207 pd osc-voice;
#N canvas 65 112 450 300 phasor-voice 0;
#X obj 126 214 *~;
#X obj 127 42 phasor~;
#X obj 127 75 *~ 2;
#X obj 127 96 -~ 1;
#X obj 126 121 *~ 0.5;
#X obj 239 138 f 0;
#X obj 237 118 t b;
#X obj 208 52 t b;
#X obj 208 111 f 1;
#X obj 209 187 line~;
#X obj 237 78 t b;
#X msg 208 164 \$1 10;
#X obj 236 98 delay 50;
#X obj 126 241 outlet~;
#X obj 126 3 inlet freq;
#X obj 208 29 inlet play;
#X obj 123 185 clip~ -1 1;
#X connect 0 0 13 0;
#X connect 1 0 2 0;
#X connect 2 0 3 0;
#X connect 3 0 4 0;
#X connect 4 0 16 0;
#X connect 5 0 11 0;
#X connect 6 0 5 0;
#X connect 7 0 8 0;
#X connect 7 0 10 0;
#X connect 8 0 11 0;
#X connect 9 0 0 1;
#X connect 10 0 12 0;
#X connect 11 0 9 0;
#X connect 12 0 6 0;
#X connect 14 0 1 0;
#X connect 15 0 7 0;
#X connect 16 0 0 0;
#X restore 141 239 pd phasor-voice;
#N canvas 477 200 450 300 osc-voice 0;
#X obj 78 102 osc~;
#X obj 131 283 *~;
#X obj 256 191 f 0;
#X obj 254 171 t b;
#X obj 225 105 t b;
#X obj 225 164 f 1;
#X obj 225 242 line~;
#X obj 254 131 t b;
#X msg 225 219 \$1 10;
#X obj 253 150 delay 50;
#X obj 131 38 inlet freq;
#X obj 225 73 inlet play;
#X obj 132 310 outlet~;
#X obj 111 125 osc~;
#X obj 170 129 osc~;
#X obj 112 97 *~ 3;
#X obj 173 101 *~ 5;
#X connect 0 0 1 0;
#X connect 1 0 12 0;
#X connect 2 0 8 0;
#X connect 3 0 2 0;
#X connect 4 0 5 0;
#X connect 4 0 7 0;
#X connect 5 0 8 0;
#X connect 6 0 1 1;
#X connect 7 0 9 0;
#X connect 8 0 6 0;
#X connect 9 0 3 0;
#X connect 10 0 0 0;
#X connect 10 0 15 0;
#X connect 10 0 16 0;
#X connect 11 0 4 0;
#X connect 13 0 1 0;
#X connect 14 0 1 0;
#X connect 15 0 13 0;
#X connect 16 0 14 0;
#X restore 177 272 pd osc-voice;
#N canvas 65 117 450 300 phasor-voice 0;
#X obj 126 214 *~;
#X obj 66 42 phasor~;
#X obj 66 75 *~ 2;
#X obj 66 96 -~ 1;
#X obj 65 121 *~ 0.5;
#X obj 294 138 f 0;
#X obj 292 118 t b;
#X obj 263 52 t b;
#X obj 263 111 f 1;
#X obj 264 187 line~;
#X obj 292 78 t b;
#X msg 263 164 \$1 10;
#X obj 291 98 delay 50;
#X obj 126 241 outlet~;
#X obj 127 -25 inlet freq;
#X obj 263 29 inlet play;
#X obj 123 185 clip~ -1 1;
#X obj 139 54 phasor~;
#X obj 139 87 *~ 2;
#X obj 139 108 -~ 1;
#X obj 138 133 *~ 0.5;
#X obj 201 63 phasor~;
#X obj 201 96 *~ 2;
#X obj 201 117 -~ 1;
#X obj 200 142 *~ 0.5;
#X obj 141 25 * 3;
#X obj 203 34 * 5;
#X connect 0 0 13 0;
#X connect 1 0 2 0;
#X connect 2 0 3 0;
#X connect 3 0 4 0;
#X connect 4 0 16 0;
#X connect 5 0 11 0;
#X connect 6 0 5 0;
#X connect 7 0 8 0;
#X connect 7 0 10 0;
#X connect 8 0 11 0;
#X connect 9 0 0 1;
#X connect 10 0 12 0;
#X connect 11 0 9 0;
#X connect 12 0 6 0;
#X connect 14 0 1 0;
#X connect 14 0 25 0;
#X connect 14 0 26 0;
#X connect 15 0 7 0;
#X connect 16 0 0 0;
#X connect 17 0 18 0;
#X connect 18 0 19 0;
#X connect 19 0 20 0;
#X connect 20 0 16 0;
#X connect 21 0 22 0;
#X connect 22 0 23 0;
#X connect 23 0 24 0;
#X connect 24 0 16 0;
#X connect 25 0 17 0;
#X connect 26 0 21 0;
#X restore 211 300 pd phasor-voice;
#X obj 536 376 / 7;
#N canvas 65 112 450 300 phasor-voice 0;
#X obj 126 214 *~;
#X obj 66 42 phasor~;
#X obj 66 75 *~ 2;
#X obj 66 96 -~ 1;
#X obj 65 121 *~ 0.5;
#X obj 294 138 f 0;
#X obj 292 118 t b;
#X obj 263 52 t b;
#X obj 263 111 f 1;
#X obj 264 187 line~;
#X obj 292 78 t b;
#X msg 263 164 \$1 10;
#X obj 291 98 delay 50;
#X obj 126 241 outlet~;
#X obj 127 -25 inlet freq;
#X obj 263 29 inlet play;
#X obj 123 185 clip~ -1 1;
#X obj 139 54 phasor~;
#X obj 139 87 *~ 2;
#X obj 139 108 -~ 1;
#X obj 138 133 *~ 0.5;
#X obj 201 63 phasor~;
#X obj 201 96 *~ 2;
#X obj 201 117 -~ 1;
#X obj 200 142 *~ 0.5;
#X obj 141 25 * 2;
#X obj 203 35 * 4;
#X connect 0 0 13 0;
#X connect 1 0 2 0;
#X connect 2 0 3 0;
#X connect 3 0 4 0;
#X connect 4 0 16 0;
#X connect 5 0 11 0;
#X connect 6 0 5 0;
#X connect 7 0 8 0;
#X connect 7 0 10 0;
#X connect 8 0 11 0;
#X connect 9 0 0 1;
#X connect 10 0 12 0;
#X connect 11 0 9 0;
#X connect 12 0 6 0;
#X connect 14 0 1 0;
#X connect 14 0 25 0;
#X connect 14 0 26 0;
#X connect 15 0 7 0;
#X connect 16 0 0 0;
#X connect 17 0 18 0;
#X connect 18 0 19 0;
#X connect 19 0 20 0;
#X connect 20 0 16 0;
#X connect 21 0 22 0;
#X connect 22 0 23 0;
#X connect 23 0 24 0;
#X connect 24 0 16 0;
#X connect 25 0 17 0;
#X connect 26 0 21 0;
#X restore 246 332 pd phasor-voice;
#X obj 363 14 sel 0 1 2 3 4 5 6 7 8;
#X floatatom 84 420 5 0 0 0 - - -, f 5;
#X obj 75 70 f 62;
#X obj 109 92 mtof;
#X obj 109 113 t f;
#X obj 109 70 f 65;
#X obj 142 91 mtof;
#X obj 142 112 t f;
#X obj 161 38 bng 15 250 50 0 empty empty empty 17 7 0 10 -262144 -1
-1;
#X obj 142 69 f 64;
#X obj 177 92 mtof;
#X obj 177 113 t f;
#X obj 202 39 bng 15 250 50 0 empty empty empty 17 7 0 10 -262144 -1
-1;
#X obj 177 70 f 67;
#X obj 211 92 mtof;
#X obj 211 113 t f;
#X obj 242 27 bng 15 250 50 0 empty empty empty 17 7 0 10 -262144 -1
-1;
#X obj 211 70 f 69;
#N canvas 65 117 450 300 phasor-voice 0;
#X obj 126 214 *~;
#X obj 66 42 phasor~;
#X obj 66 75 *~ 2;
#X obj 66 96 -~ 1;
#X obj 65 121 *~ 0.5;
#X obj 294 138 f 0;
#X obj 292 118 t b;
#X obj 263 52 t b;
#X obj 263 111 f 1;
#X obj 264 187 line~;
#X obj 292 78 t b;
#X msg 263 164 \$1 10;
#X obj 291 98 delay 50;
#X obj 126 241 outlet~;
#X obj 127 -25 inlet freq;
#X obj 263 29 inlet play;
#X obj 123 185 clip~ -1 1;
#X obj 139 54 phasor~;
#X obj 139 87 *~ 2;
#X obj 139 108 -~ 1;
#X obj 138 133 *~ 0.5;
#X obj 201 63 phasor~;
#X obj 201 96 *~ 2;
#X obj 201 117 -~ 1;
#X obj 200 142 *~ 0.5;
#X obj 141 25 * 2;
#X obj 203 35 * 4;
#X connect 0 0 13 0;
#X connect 1 0 2 0;
#X connect 2 0 3 0;
#X connect 3 0 4 0;
#X connect 4 0 16 0;
#X connect 5 0 11 0;
#X connect 6 0 5 0;
#X connect 7 0 8 0;
#X connect 7 0 10 0;
#X connect 8 0 11 0;
#X connect 9 0 0 1;
#X connect 10 0 12 0;
#X connect 11 0 9 0;
#X connect 12 0 6 0;
#X connect 14 0 1 0;
#X connect 14 0 25 0;
#X connect 14 0 26 0;
#X connect 15 0 7 0;
#X connect 16 0 0 0;
#X connect 17 0 18 0;
#X connect 18 0 19 0;
#X connect 19 0 20 0;
#X connect 20 0 16 0;
#X connect 21 0 22 0;
#X connect 22 0 23 0;
#X connect 23 0 24 0;
#X connect 24 0 16 0;
#X connect 25 0 17 0;
#X connect 26 0 21 0;
#X restore 283 359 pd phasor-voice;
#X obj 246 92 mtof;
#X obj 246 113 t f;
#X obj 265 39 bng 15 250 50 0 empty empty empty 17 7 0 10 -262144 -1
-1;
#X obj 246 70 f 72;
#X floatatom 258 -52 5 0 0 0 - - -, f 5;
#X obj 283 94 mtof;
#X obj 283 115 t f;
#X obj 302 41 bng 15 250 50 0 empty empty empty 17 7 0 10 -262144 -1
-1;
#X obj 283 72 f 68;
#X connect 1 0 4 0;
#X connect 2 0 3 0;
#X connect 3 0 9 0;
#X connect 4 0 14 0;
#X connect 5 0 16 0;
#X connect 6 0 4 1;
#X connect 7 0 8 0;
#X connect 7 0 31 0;
#X connect 7 0 34 0;
#X connect 7 0 38 0;
#X connect 7 0 42 0;
#X connect 7 0 46 0;
#X connect 7 0 51 0;
#X connect 7 0 56 0;
#X connect 8 0 2 0;
#X connect 9 0 1 0;
#X connect 10 0 1 0;
#X connect 11 0 6 0;
#X connect 12 0 13 0;
#X connect 13 0 10 0;
#X connect 14 0 0 0;
#X connect 14 1 0 1;
#X connect 15 0 14 1;
#X connect 16 0 29 0;
#X connect 16 1 27 0;
#X connect 17 0 0 0;
#X connect 17 0 0 1;
#X connect 18 0 17 0;
#X connect 19 0 20 0;
#X connect 20 0 0 0;
#X connect 20 0 0 1;
#X connect 21 0 0 0;
#X connect 22 0 21 0;
#X connect 23 0 1 0;
#X connect 24 0 1 0;
#X connect 25 0 1 0;
#X connect 26 0 1 0;
#X connect 27 0 11 0;
#X connect 28 0 1 0;
#X connect 29 1 9 1;
#X connect 29 2 10 1;
#X connect 29 3 23 1;
#X connect 29 4 24 1;
#X connect 29 5 25 1;
#X connect 29 6 26 1;
#X connect 29 7 28 1;
#X connect 29 8 47 1;
#X connect 30 0 14 1;
#X connect 31 0 12 0;
#X connect 32 0 33 0;
#X connect 33 0 23 0;
#X connect 34 0 32 0;
#X connect 35 0 36 0;
#X connect 36 0 24 0;
#X connect 37 0 38 0;
#X connect 38 0 35 0;
#X connect 39 0 40 0;
#X connect 40 0 25 0;
#X connect 41 0 42 0;
#X connect 42 0 39 0;
#X connect 43 0 44 0;
#X connect 44 0 26 0;
#X connect 45 0 46 0;
#X connect 46 0 43 0;
#X connect 47 0 1 0;
#X connect 48 0 49 0;
#X connect 49 0 28 0;
#X connect 50 0 51 0;
#X connect 51 0 48 0;
#X connect 52 0 16 0;
#X connect 53 0 54 0;
#X connect 54 0 47 0;
#X connect 55 0 56 0;
#X connect 56 0 53 0;
